<svg width="416" height="516" viewBox="0 0 416 516" fill="none" xmlns="http://www.w3.org/2000/svg">
<rect x="4" y="4" width="408" height="508" fill="white"/>
<rect x="8" y="8" width="400" height="500" fill="white"/>
<mask id="mask0_2_790" style="mask-type:alpha" maskUnits="userSpaceOnUse" x="8" y="8" width="400" height="500">
<rect x="8" y="8" width="400" height="500" fill="black"/>
</mask>
<g mask="url(#mask0_2_790)">
<path d="M201.502 373.886C201.502 376.591 199.212 378.881 196.507 378.881C193.802 378.881 191.513 376.591 191.513 373.886C191.513 371.181 193.802 368.892 196.507 368.892C199.421 368.892 201.502 371.181 201.502 373.886Z" fill="#F77F00"/>
<path d="M233.758 373.886C233.758 376.591 231.469 378.881 228.763 378.881C226.058 378.881 223.769 376.591 223.769 373.886C223.769 371.181 226.058 368.892 228.763 368.892C231.469 368.892 233.758 371.181 233.758 373.886Z" fill="#F77F00"/>
<path d="M266.014 373.886C266.014 376.591 263.725 378.881 261.02 378.881C258.314 378.881 256.025 376.591 256.025 373.886C256.025 371.181 258.314 368.892 261.02 368.892C263.725 368.892 266.014 371.181 266.014 373.886Z" fill="#F77F00"/>
<path d="M298.271 373.886C298.271 376.591 295.981 378.881 293.276 378.881C290.571 378.881 288.281 376.591 288.281 373.886C288.281 371.181 290.571 368.892 293.276 368.892C295.981 368.892 298.271 371.181 298.271 373.886Z" fill="#F77F00"/>
<path d="M169.245 343.503C169.245 346.208 166.956 348.497 164.251 348.497C161.545 348.497 159.256 346.208 159.256 343.503C159.256 340.797 161.545 338.508 164.251 338.508C167.164 338.508 169.245 340.797 169.245 343.503Z" fill="#F77F00"/>
<path d="M201.502 343.503C201.502 346.208 199.213 348.497 196.507 348.497C193.802 348.497 191.513 346.208 191.513 343.503C191.513 340.797 193.802 338.508 196.507 338.508C199.421 338.508 201.502 340.797 201.502 343.503Z" fill="#F77F00"/>
<path d="M233.758 343.503C233.758 346.208 231.469 348.497 228.763 348.497C226.058 348.497 223.769 346.208 223.769 343.503C223.769 340.797 226.058 338.508 228.763 338.508C231.469 338.508 233.758 340.797 233.758 343.503Z" fill="#F77F00"/>
<path d="M266.014 343.503C266.014 346.208 263.725 348.497 261.02 348.497C258.314 348.497 256.025 346.208 256.025 343.503C256.025 340.797 258.314 338.508 261.02 338.508C263.725 338.508 266.014 340.797 266.014 343.503Z" fill="#F77F00"/>
<path d="M298.271 343.503C298.271 346.208 295.981 348.497 293.276 348.497C290.571 348.497 288.281 346.208 288.281 343.503C288.281 340.797 290.571 338.508 293.276 338.508C295.981 338.508 298.271 340.797 298.271 343.503Z" fill="#F77F00"/>
<path d="M330.527 343.503C330.527 346.208 328.238 348.497 325.532 348.497C322.827 348.497 320.538 346.208 320.538 343.503C320.538 340.797 322.827 338.508 325.532 338.508C328.238 338.508 330.527 340.797 330.527 343.503Z" fill="#F77F00"/>
<path d="M169.245 313.119C169.245 315.825 166.956 318.114 164.251 318.114C161.545 318.114 159.256 315.825 159.256 313.119C159.256 310.414 161.545 308.125 164.251 308.125C167.164 308.125 169.245 310.414 169.245 313.119Z" fill="#F77F00"/>
<path d="M201.502 313.119C201.502 315.825 199.213 318.114 196.507 318.114C193.802 318.114 191.513 315.825 191.513 313.119C191.513 310.414 193.802 308.125 196.507 308.125C199.421 308.125 201.502 310.414 201.502 313.119Z" fill="#F77F00"/>
<path d="M233.758 313.119C233.758 315.825 231.469 318.114 228.763 318.114C226.058 318.114 223.769 315.825 223.769 313.119C223.769 310.414 226.058 308.125 228.763 308.125C231.469 308.125 233.758 310.414 233.758 313.119Z" fill="#F77F00"/>
<path d="M266.014 313.119C266.014 315.825 263.725 318.114 261.02 318.114C258.314 318.114 256.025 315.825 256.025 313.119C256.025 310.414 258.314 308.125 261.02 308.125C263.725 308.125 266.014 310.414 266.014 313.119Z" fill="#F77F00"/>
<path d="M298.271 313.119C298.271 315.825 295.981 318.114 293.276 318.114C290.571 318.114 288.281 315.825 288.281 313.119C288.281 310.414 290.571 308.125 293.276 308.125C295.981 308.125 298.271 310.414 298.271 313.119Z" fill="#F77F00"/>
<path d="M330.527 313.119C330.527 315.825 328.238 318.114 325.532 318.114C322.827 318.114 320.538 315.825 320.538 313.119C320.538 310.414 322.827 308.125 325.532 308.125C328.238 308.125 330.527 310.414 330.527 313.119Z" fill="#F77F00"/>
<path d="M136.989 282.737C136.989 285.442 134.7 287.731 131.995 287.731C129.289 287.731 127 285.442 127 282.737C127 280.031 129.289 277.742 131.995 277.742C134.908 277.742 136.989 279.823 136.989 282.737Z" fill="#F77F00"/>
<path d="M169.245 282.736C169.245 285.441 166.956 287.73 164.251 287.73C161.545 287.73 159.256 285.441 159.256 282.736C159.256 280.031 161.545 277.741 164.251 277.741C167.164 277.741 169.245 279.822 169.245 282.736Z" fill="#F77F00"/>
<path d="M201.502 282.736C201.502 285.441 199.212 287.73 196.507 287.73C193.802 287.73 191.513 285.441 191.513 282.736C191.513 280.031 193.802 277.741 196.507 277.741C199.42 277.741 201.502 279.822 201.502 282.736Z" fill="#F77F00"/>
<path d="M233.758 282.736C233.758 285.441 231.469 287.73 228.763 287.73C226.058 287.73 223.769 285.441 223.769 282.736C223.769 280.031 226.058 277.741 228.763 277.741C231.469 277.741 233.758 279.822 233.758 282.736Z" fill="#F77F00"/>
<path d="M266.014 282.736C266.014 285.441 263.725 287.73 261.02 287.73C258.314 287.73 256.025 285.441 256.025 282.736C256.025 280.031 258.314 277.741 261.02 277.741C263.725 277.741 266.014 279.822 266.014 282.736Z" fill="#F77F00"/>
<path d="M298.271 282.736C298.271 285.441 295.981 287.73 293.276 287.73C290.571 287.73 288.281 285.441 288.281 282.736C288.281 280.031 290.571 277.741 293.276 277.741C295.981 277.741 298.271 279.822 298.271 282.736Z" fill="#F77F00"/>
<path d="M330.527 282.736C330.527 285.441 328.238 287.73 325.532 287.73C322.827 287.73 320.538 285.441 320.538 282.736C320.538 280.031 322.827 277.741 325.532 277.741C328.238 277.741 330.527 279.822 330.527 282.736Z" fill="#F77F00"/>
<path d="M357.788 287.73C360.547 287.73 362.783 285.494 362.783 282.736C362.783 279.978 360.547 277.741 357.788 277.741C355.03 277.741 352.794 279.978 352.794 282.736C352.794 285.494 355.03 287.73 357.788 287.73Z" fill="#F77F00"/>
<path d="M136.989 252.353C136.989 255.058 134.7 257.347 131.995 257.347C129.289 257.347 127 255.058 127 252.353C127 249.647 129.289 247.358 131.995 247.358C134.908 247.15 136.989 249.439 136.989 252.353Z" fill="#F77F00"/>
<path d="M169.245 252.353C169.245 255.058 166.956 257.347 164.251 257.347C161.545 257.347 159.256 255.058 159.256 252.353C159.256 249.647 161.545 247.358 164.251 247.358C167.164 247.15 169.245 249.439 169.245 252.353Z" fill="#F77F00"/>
<path d="M201.502 252.353C201.502 255.058 199.212 257.347 196.507 257.347C193.802 257.347 191.513 255.058 191.513 252.353C191.513 249.647 193.802 247.358 196.507 247.358C199.42 247.15 201.502 249.439 201.502 252.353Z" fill="#F77F00"/>
<path d="M233.758 252.353C233.758 255.058 231.469 257.347 228.763 257.347C226.058 257.347 223.769 255.058 223.769 252.353C223.769 249.647 226.058 247.358 228.763 247.358C231.469 247.15 233.758 249.439 233.758 252.353Z" fill="#F77F00"/>
<path d="M266.014 252.353C266.014 255.058 263.725 257.347 261.02 257.347C258.314 257.347 256.025 255.058 256.025 252.353C256.025 249.647 258.314 247.358 261.02 247.358C263.725 247.15 266.014 249.439 266.014 252.353Z" fill="#F77F00"/>
<path d="M298.271 252.353C298.271 255.058 295.981 257.347 293.276 257.347C290.571 257.347 288.281 255.058 288.281 252.353C288.281 249.647 290.571 247.358 293.276 247.358C295.981 247.15 298.271 249.439 298.271 252.353Z" fill="#F77F00"/>
<path d="M330.527 252.353C330.527 255.058 328.238 257.347 325.532 257.347C322.827 257.347 320.538 255.058 320.538 252.353C320.538 249.647 322.827 247.358 325.532 247.358C328.238 247.15 330.527 249.439 330.527 252.353Z" fill="#F77F00"/>
<path d="M362.783 252.353C362.783 255.058 360.494 257.347 357.788 257.347C355.083 257.347 352.794 255.058 352.794 252.353C352.794 249.647 355.083 247.358 357.788 247.358C360.494 247.15 362.783 249.439 362.783 252.353Z" fill="#F77F00"/>
<path d="M169.245 221.761C169.245 224.467 166.956 226.756 164.251 226.756C161.545 226.756 159.256 224.467 159.256 221.761C159.256 219.056 161.545 216.767 164.251 216.767C167.164 216.767 169.245 219.056 169.245 221.761Z" fill="#F77F00"/>
<path d="M201.502 221.761C201.502 224.467 199.213 226.756 196.507 226.756C193.802 226.756 191.513 224.467 191.513 221.761C191.513 219.056 193.802 216.767 196.507 216.767C199.421 216.767 201.502 219.056 201.502 221.761Z" fill="#F77F00"/>
<path d="M233.758 221.761C233.758 224.467 231.469 226.756 228.763 226.756C226.058 226.756 223.769 224.467 223.769 221.761C223.769 219.056 226.058 216.767 228.763 216.767C231.469 216.767 233.758 219.056 233.758 221.761Z" fill="#F77F00"/>
<path d="M266.014 221.761C266.014 224.467 263.725 226.756 261.02 226.756C258.314 226.756 256.025 224.467 256.025 221.761C256.025 219.056 258.314 216.767 261.02 216.767C263.725 216.767 266.014 219.056 266.014 221.761Z" fill="#F77F00"/>
<path d="M298.271 221.761C298.271 224.467 295.981 226.756 293.276 226.756C290.571 226.756 288.281 224.467 288.281 221.761C288.281 219.056 290.571 216.767 293.276 216.767C295.981 216.767 298.271 219.056 298.271 221.761Z" fill="#F77F00"/>
<path d="M330.527 221.761C330.527 224.467 328.238 226.756 325.532 226.756C322.827 226.756 320.538 224.467 320.538 221.761C320.538 219.056 322.827 216.767 325.532 216.767C328.238 216.767 330.527 219.056 330.527 221.761Z" fill="#F77F00"/>
<path d="M169.245 191.378C169.245 194.083 166.956 196.372 164.251 196.372C161.545 196.372 159.256 194.083 159.256 191.378C159.256 188.672 161.545 186.383 164.251 186.383C167.164 186.383 169.245 188.672 169.245 191.378Z" fill="#F77F00"/>
<path d="M201.502 191.378C201.502 194.083 199.213 196.372 196.507 196.372C193.802 196.372 191.513 194.083 191.513 191.378C191.513 188.672 193.802 186.383 196.507 186.383C199.421 186.383 201.502 188.672 201.502 191.378Z" fill="#F77F00"/>
<path d="M233.758 191.378C233.758 194.083 231.469 196.372 228.763 196.372C226.058 196.372 223.769 194.083 223.769 191.378C223.769 188.672 226.058 186.383 228.763 186.383C231.469 186.383 233.758 188.672 233.758 191.378Z" fill="#F77F00"/>
<path d="M266.014 191.378C266.014 194.083 263.725 196.372 261.02 196.372C258.314 196.372 256.025 194.083 256.025 191.378C256.025 188.672 258.314 186.383 261.02 186.383C263.725 186.383 266.014 188.672 266.014 191.378Z" fill="#F77F00"/>
<path d="M298.271 191.378C298.271 194.083 295.981 196.372 293.276 196.372C290.571 196.372 288.281 194.083 288.281 191.378C288.281 188.672 290.571 186.383 293.276 186.383C295.981 186.383 298.271 188.672 298.271 191.378Z" fill="#F77F00"/>
<path d="M330.527 191.378C330.527 194.083 328.238 196.372 325.532 196.372C322.827 196.372 320.538 194.083 320.538 191.378C320.538 188.672 322.827 186.383 325.532 186.383C328.238 186.383 330.527 188.672 330.527 191.378Z" fill="#F77F00"/>
<path d="M201.502 160.995C201.502 163.7 199.212 165.989 196.507 165.989C193.802 165.989 191.513 163.7 191.513 160.995C191.513 158.289 193.802 156 196.507 156C199.421 156 201.502 158.289 201.502 160.995Z" fill="#F77F00"/>
<path d="M233.758 160.995C233.758 163.7 231.469 165.989 228.763 165.989C226.058 165.989 223.769 163.7 223.769 160.995C223.769 158.289 226.058 156 228.763 156C231.469 156 233.758 158.289 233.758 160.995Z" fill="#F77F00"/>
<path d="M266.014 160.995C266.014 163.7 263.725 165.989 261.02 165.989C258.314 165.989 256.025 163.7 256.025 160.995C256.025 158.289 258.314 156 261.02 156C263.725 156 266.014 158.289 266.014 160.995Z" fill="#F77F00"/>
<path d="M298.271 160.995C298.271 163.7 295.981 165.989 293.276 165.989C290.571 165.989 288.281 163.7 288.281 160.995C288.281 158.289 290.571 156 293.276 156C295.981 156 298.271 158.289 298.271 160.995Z" fill="#F77F00"/>
<path d="M171.896 179.985C162.819 170.058 148.354 179.985 141.831 187.643C129.635 202.676 123.395 221.962 121.977 241.533C120.275 260.819 123.112 280.39 127.082 299.393C130.486 315.56 133.038 331.727 120.842 344.49C118.29 347.326 95.0323 360.94 99.854 364.627C106.945 370.016 130.486 366.896 126.515 367.747C122.544 368.598 107.796 371.718 110.065 377.107C112.334 382.496 149.205 393.557 175.866 390.438C202.527 387.318 258.686 381.078 275.136 377.958C291.587 374.838 293.856 369.449 293.856 369.449L285.347 364.627C285.347 364.627 304.917 366.896 310.306 360.657C315.695 354.417 298.677 365.478 293.005 340.235C287.616 315.276 309.455 271.314 293.005 218.275C276.554 164.953 233.443 155.026 206.215 157.295C178.986 159.564 171.896 179.985 171.896 179.985Z" fill="#1E1714"/>
<path d="M234.294 364.627C230.039 355.835 232.592 335.981 232.592 335.981L208.484 334.279L184.375 335.981C184.375 335.981 186.928 355.835 182.674 364.627C178.419 373.42 138.427 377.674 138.427 377.674C138.427 377.674 138.427 388.168 145.235 401.783C150.623 412.56 186.928 417.666 201.96 419.368C206.215 419.935 210.753 419.935 215.007 419.368C230.039 417.666 266.06 412.844 271.733 401.783C278.54 387.885 278.54 377.674 278.54 377.674C278.54 377.674 238.548 373.42 234.294 364.627Z" fill="#E7AA9E"/>
<path d="M234.294 364.627C230.039 355.835 232.592 335.981 232.592 335.981L208.484 334.279L184.375 335.981C184.375 335.981 185.226 342.504 185.226 349.595C193.735 359.522 205.364 367.464 220.963 370.584C232.308 372.853 242.519 373.42 251.879 372.569C243.086 370.867 235.996 368.031 234.294 364.627Z" fill="#D9998D"/>
<path d="M148.922 280.39C148.922 280.39 143.249 267.343 132.471 272.448C121.693 277.553 130.77 300.527 141.547 303.364C152.325 306.2 155.162 301.095 154.027 293.72C152.893 286.63 148.922 280.39 148.922 280.39Z" fill="#E7AA9E"/>
<path d="M150.056 287.764C150.056 287.764 141.831 272.448 134.457 277.554C129.351 281.241 135.591 292.302 135.591 289.75C135.875 287.197 131.904 281.808 134.74 280.39C137.577 279.255 142.398 281.808 141.264 284.361C140.129 286.913 138.427 292.302 140.696 292.019C142.966 291.735 144.951 290.317 144.951 291.735C144.951 293.153 142.115 293.437 143.533 296.84C144.951 300.244 150.907 300.244 151.191 295.989C151.474 291.451 150.056 287.764 150.056 287.764Z" fill="#D9998D"/>
<path d="M267.478 280.39C267.478 280.39 273.151 267.343 283.929 272.448C294.707 277.553 285.631 300.527 274.853 303.364C264.075 306.2 261.239 301.095 262.373 293.72C263.508 286.63 267.478 280.39 267.478 280.39Z" fill="#E7AA9E"/>
<path d="M266.911 287.764C266.911 287.764 275.136 272.448 282.511 277.554C287.616 281.241 281.376 292.302 281.376 289.75C281.093 287.197 285.063 281.808 282.227 280.39C279.391 279.255 274.569 281.808 275.704 284.361C276.838 286.913 278.54 292.302 276.271 292.019C274.002 291.735 272.016 290.317 272.016 291.735C272.016 293.153 274.853 293.437 273.435 296.84C272.016 299.96 266.06 300.244 265.777 295.989C265.209 291.451 266.911 287.764 266.911 287.764Z" fill="#D9998D"/>
<path d="M270.315 222.53C258.686 183.105 208.2 183.105 208.2 183.105C208.2 183.105 157.714 183.105 146.085 222.53C137.293 252.027 144.667 306.2 163.954 332.294C168.776 338.817 173.881 343.639 178.986 347.326C196.571 360.657 220.396 360.657 237.981 347.326C243.086 343.639 248.192 338.534 253.013 332.294C272.016 305.916 279.107 252.027 270.315 222.53Z" fill="#EEC0AE"/>
<path d="M270.315 222.53C258.686 183.105 208.2 183.105 208.2 183.105C208.2 183.105 177.285 183.105 158.281 201.825C157.714 210.05 157.714 215.723 157.714 215.723C159.416 219.977 176.717 239.264 213.305 253.161C249.893 267.059 255.566 282.942 249.893 310.454C244.788 333.996 226.069 351.864 201.393 356.969C213.873 358.671 226.919 355.551 237.697 347.61C242.803 343.923 247.908 338.817 252.73 332.577C272.016 305.916 279.107 252.027 270.315 222.53Z" fill="#E5A99B"/>
<path d="M184.375 312.156C184.375 317.545 180.121 321.8 174.732 321.8C169.343 321.8 165.089 317.545 165.089 312.156C165.089 306.767 169.343 302.513 174.732 302.513C180.121 302.513 184.375 306.767 184.375 312.156Z" fill="#E29B8F"/>
<path d="M253.013 312.156C253.013 317.545 248.759 321.8 243.37 321.8C237.981 321.8 233.727 317.545 233.727 312.156C233.727 306.767 237.981 302.513 243.37 302.513C248.759 302.513 253.013 306.767 253.013 312.156Z" fill="#E29B8F"/>
<path d="M208.484 309.32C208.2 309.32 207.916 309.32 207.633 309.32C207.066 309.32 206.782 308.753 206.782 308.185C206.782 307.618 207.349 307.335 207.916 307.335C209.335 307.618 217.276 306.2 220.112 302.513C222.098 299.96 217.56 292.586 214.44 287.197C213.022 284.928 211.887 282.943 211.036 281.241C208.2 275.568 212.454 270.463 215.291 268.761C215.858 268.477 216.425 268.478 216.709 269.045C216.993 269.612 216.993 270.179 216.425 270.463C216.142 270.747 210.469 274.717 213.022 280.106C213.873 281.808 215.007 283.793 216.142 286.062C220.112 292.87 224.367 300.244 221.531 303.647C218.978 307.618 211.604 309.32 208.484 309.32Z" fill="#AE634D"/>
<path d="M184.659 277.27C184.659 279.823 182.673 281.524 180.404 281.524C177.852 281.524 176.15 279.539 176.15 277.27C176.15 275.001 178.135 273.015 180.404 273.015C182.673 272.732 184.659 274.717 184.659 277.27Z" fill="#1E1714"/>
<path d="M237.414 281.524C239.763 281.524 241.668 279.62 241.668 277.27C241.668 274.92 239.763 273.016 237.414 273.016C235.064 273.016 233.159 274.92 233.159 277.27C233.159 279.62 235.064 281.524 237.414 281.524Z" fill="#1E1714"/>
<path d="M187.779 258.834C187.779 258.834 182.106 251.46 174.448 253.445C166.79 255.431 163.67 260.536 163.67 260.536C163.67 260.536 176.717 253.161 187.779 258.834Z" fill="#1E1714"/>
<path d="M227.487 258.551C227.487 258.551 233.159 251.176 240.817 253.162C248.475 255.147 251.595 260.252 251.595 260.252C251.595 260.252 238.548 253.162 227.487 258.551Z" fill="#1E1714"/>
<path d="M336.4 507.86H80C80 507.86 83.4036 416.248 100.421 393.274C115.737 372.569 166.79 366.046 176.717 364.911C179.554 378.809 192.6 389.02 208.2 389.02C223.8 389.02 236.846 378.525 239.683 364.911C249.61 366.046 300.663 372.569 315.979 393.274C332.996 416.248 336.4 507.86 336.4 507.86Z" fill="#D62828"/>
<g opacity="0.5">
<path opacity="0.5" d="M336.4 507.86C336.4 507.86 332.997 416.248 315.979 393.274C300.663 372.569 249.61 366.046 239.683 364.911C239.115 368.031 237.981 370.867 236.279 373.42C238.548 373.987 260.104 379.093 270.598 406.888C278.54 427.593 271.166 478.079 267.762 507.86H336.4Z" fill="#EF8888"/>
</g>
<path d="M170.477 365.478C173.881 382.212 189.481 394.692 208.2 394.692C226.92 394.692 242.519 382.212 245.923 365.478C243.37 365.195 241.101 364.911 239.966 364.628C237.13 378.525 224.083 389.02 208.484 389.02C192.884 389.02 179.837 378.525 177.001 364.628C175.299 364.911 173.314 365.195 170.477 365.478Z" fill="#D62828"/>
<path d="M130.769 439.505C130.769 439.789 124.53 469.003 122.544 507.86H118.573C120.275 468.436 126.799 438.938 126.799 438.654C127.082 437.52 128.217 436.953 129.351 436.953C130.202 437.236 131.053 438.371 130.769 439.505Z" fill="#D62828"/>
<path d="M297.827 507.86H293.856C292.154 469.003 285.914 439.789 285.631 439.505C285.347 438.371 286.198 437.236 287.332 436.953C288.467 436.669 289.601 437.52 289.885 438.654C289.885 438.938 296.125 468.435 297.827 507.86Z" fill="#D62828"/>
<path d="M152.042 314.141C152.042 314.141 137.577 283.226 137.009 268.194C136.726 252.878 139.278 225.082 147.503 207.497C155.729 189.912 184.092 175.447 207.916 175.731C231.741 176.015 260.104 192.181 266.911 206.363C273.718 220.544 278.823 248.907 277.973 265.641C277.405 282.092 264.358 314.425 264.358 314.425C264.358 314.425 268.896 287.48 264.358 271.597C259.537 255.43 244.504 240.682 244.504 240.682C244.504 240.682 249.61 248.907 251.879 256.565C254.148 264.223 253.864 270.179 253.864 270.179C253.864 270.179 246.773 255.43 239.399 250.892C232.025 246.354 206.782 227.635 206.782 227.635C206.782 227.635 210.753 235.293 216.992 240.682C223.232 246.071 234.01 254.58 234.01 254.58C234.01 254.58 214.156 252.027 200.258 242.1C186.077 232.173 177.568 222.53 177.568 222.53C177.568 222.53 180.688 231.889 184.375 235.86C188.062 239.831 190.048 241.816 190.048 241.816C190.048 241.816 180.688 240.682 174.165 236.144C167.358 231.606 163.67 226.5 163.67 226.5C163.67 226.5 167.357 233.307 164.805 242.667C162.252 252.027 158.565 259.401 158.565 257.983C158.565 256.565 157.43 249.191 156.012 242.667C156.012 242.667 156.296 249.191 152.609 256.849C148.922 264.507 150.056 271.03 150.056 278.404C149.773 286.346 152.042 314.141 152.042 314.141Z" fill="#1E1714"/>
<path d="M194.586 319.247C200.258 320.381 211.32 321.799 222.949 319.247C224.367 318.963 225.501 320.381 224.65 321.8C222.381 325.487 217.843 330.592 208.767 330.876C200.258 331.159 195.153 325.77 192.6 322.083C192.033 320.665 193.168 318.963 194.586 319.247Z" fill="#D16565"/>
<path d="M198.557 322.934C203.662 324.352 218.978 324.352 221.814 321.8C222.665 320.949 223.232 320.098 223.8 319.247C223.516 319.247 223.232 319.247 222.949 319.247C211.32 321.799 200.258 320.381 194.586 319.247C194.302 319.247 194.302 319.247 194.019 319.247C194.302 320.665 195.72 322.083 198.557 322.934Z" fill="#F4F4F2"/>
<path opacity="0.24" d="M198.645 287.988C200.773 274.844 191.842 262.463 178.698 260.336C165.554 258.208 153.173 267.139 151.046 280.283C148.918 293.427 157.849 305.808 170.993 307.935C184.137 310.063 196.518 301.132 198.645 287.988Z" fill="white"/>
<path d="M174.732 310.454C160.267 310.454 148.354 298.542 148.354 284.077C148.354 269.612 160.267 257.699 174.732 257.699C189.197 257.699 201.109 269.612 201.109 284.077C201.109 298.542 189.197 310.454 174.732 310.454ZM174.732 262.238C162.536 262.238 152.893 272.165 152.893 284.077C152.893 296.273 162.819 305.916 174.732 305.916C186.928 305.916 196.571 295.989 196.571 284.077C196.855 271.881 186.928 262.238 174.732 262.238Z" fill="#F4F4F2"/>
<path opacity="0.24" d="M264.037 287.572C265.98 274.4 256.877 262.147 243.704 260.205C230.532 258.262 218.279 267.365 216.337 280.538C214.394 293.71 223.497 305.963 236.67 307.905C249.842 309.848 262.095 300.745 264.037 287.572Z" fill="white"/>
<path d="M240.25 310.454C225.785 310.454 213.873 298.542 213.873 284.077C213.873 269.612 225.785 257.699 240.25 257.699C254.715 257.699 266.627 269.612 266.627 284.077C266.627 298.542 254.715 310.454 240.25 310.454ZM240.25 262.238C228.054 262.238 218.411 272.165 218.411 284.077C218.411 296.273 228.338 305.916 240.25 305.916C252.446 305.916 262.089 295.989 262.089 284.077C262.089 271.881 252.446 262.238 240.25 262.238Z" fill="#F4F4F2"/>
<path d="M216.142 281.808H198.84V286.062H216.142V281.808Z" fill="#F4F4F2"/>
<path d="M20.5832 24.1664C21.4576 24.1664 22.1664 23.4576 22.1664 22.5832C22.1664 21.7088 21.4576 21 20.5832 21C19.7088 21 19 21.7088 19 22.5832C19 23.4576 19.7088 24.1664 20.5832 24.1664Z" stroke="#003049" stroke-width="0.5" stroke-miterlimit="10" stroke-linecap="round" stroke-linejoin="round"/>
<path d="M20.5832 34.231C19.6785 34.231 19 33.5525 19 32.6478C19 31.7432 19.6785 31.0646 20.5832 31.0646C21.4879 31.0646 22.1664 31.7432 22.1664 32.6478C22.1664 33.5525 21.4879 34.231 20.5832 34.231Z" stroke="#003049" stroke-width="0.5" stroke-miterlimit="10" stroke-linecap="round" stroke-linejoin="round"/>
<path d="M20.5832 44.4088C21.4576 44.4088 22.1664 43.7 22.1664 42.8256C22.1664 41.9512 21.4576 41.2424 20.5832 41.2424C19.7088 41.2424 19 41.9512 19 42.8256C19 43.7 19.7088 44.4088 20.5832 44.4088Z" stroke="#003049" stroke-width="0.5" stroke-miterlimit="10" stroke-linecap="round" stroke-linejoin="round"/>
<path d="M20.5832 54.4733C21.4576 54.4733 22.1664 53.7645 22.1664 52.8901C22.1664 52.0158 21.4576 51.3069 20.5832 51.3069C19.7088 51.3069 19 52.0158 19 52.8901C19 53.7645 19.7088 54.4733 20.5832 54.4733Z" stroke="#003049" stroke-width="0.5" stroke-miterlimit="10" stroke-linecap="round" stroke-linejoin="round"/>
<path d="M20.5832 64.651C21.4576 64.651 22.1664 63.9422 22.1664 63.0678C22.1664 62.1934 21.4576 61.4846 20.5832 61.4846C19.7088 61.4846 19 62.1934 19 63.0678C19 63.9422 19.7088 64.651 20.5832 64.651Z" stroke="#003049" stroke-width="0.5" stroke-miterlimit="10" stroke-linecap="round" stroke-linejoin="round"/>
<path d="M20.5832 74.7157C21.4576 74.7157 22.1664 74.0069 22.1664 73.1325C22.1664 72.2581 21.4576 71.5493 20.5832 71.5493C19.7088 71.5493 19 72.2581 19 73.1325C19 74.0069 19.7088 74.7157 20.5832 74.7157Z" stroke="#003049" stroke-width="0.5" stroke-miterlimit="10" stroke-linecap="round" stroke-linejoin="round"/>
<path d="M20.5832 84.8934C19.6785 84.8934 19 84.2149 19 83.3102C19 82.4055 19.6785 81.727 20.5832 81.727C21.4879 81.727 22.1664 82.4055 22.1664 83.3102C22.1664 84.1018 21.4879 84.8934 20.5832 84.8934Z" stroke="#003049" stroke-width="0.5" stroke-miterlimit="10" stroke-linecap="round" stroke-linejoin="round"/>
<path d="M20.5832 94.958C21.4576 94.958 22.1664 94.2492 22.1664 93.3748C22.1664 92.5004 21.4576 91.7916 20.5832 91.7916C19.7088 91.7916 19 92.5004 19 93.3748C19 94.2492 19.7088 94.958 20.5832 94.958Z" stroke="#003049" stroke-width="0.5" stroke-miterlimit="10" stroke-linecap="round" stroke-linejoin="round"/>
<path d="M30.0824 24.1664C30.9568 24.1664 31.6656 23.4576 31.6656 22.5832C31.6656 21.7088 30.9568 21 30.0824 21C29.208 21 28.4992 21.7088 28.4992 22.5832C28.4992 23.4576 29.208 24.1664 30.0824 24.1664Z" stroke="#003049" stroke-width="0.5" stroke-miterlimit="10" stroke-linecap="round" stroke-linejoin="round"/>
<path d="M30.0824 34.231C29.1777 34.231 28.4992 33.5525 28.4992 32.6478C28.4992 31.7432 29.1777 31.0646 30.0824 31.0646C30.9871 31.0646 31.6656 31.7432 31.6656 32.6478C31.6656 33.5525 30.9871 34.231 30.0824 34.231Z" stroke="#003049" stroke-width="0.5" stroke-miterlimit="10" stroke-linecap="round" stroke-linejoin="round"/>
<path d="M30.0824 44.4088C30.9568 44.4088 31.6656 43.7 31.6656 42.8256C31.6656 41.9512 30.9568 41.2424 30.0824 41.2424C29.208 41.2424 28.4992 41.9512 28.4992 42.8256C28.4992 43.7 29.208 44.4088 30.0824 44.4088Z" stroke="#003049" stroke-width="0.5" stroke-miterlimit="10" stroke-linecap="round" stroke-linejoin="round"/>
<path d="M30.0824 54.4733C30.9568 54.4733 31.6656 53.7645 31.6656 52.8901C31.6656 52.0158 30.9568 51.3069 30.0824 51.3069C29.208 51.3069 28.4992 52.0158 28.4992 52.8901C28.4992 53.7645 29.208 54.4733 30.0824 54.4733Z" stroke="#003049" stroke-width="0.5" stroke-miterlimit="10" stroke-linecap="round" stroke-linejoin="round"/>
<path d="M30.0824 64.651C30.9568 64.651 31.6656 63.9422 31.6656 63.0678C31.6656 62.1934 30.9568 61.4846 30.0824 61.4846C29.208 61.4846 28.4992 62.1934 28.4992 63.0678C28.4992 63.9422 29.208 64.651 30.0824 64.651Z" stroke="#003049" stroke-width="0.5" stroke-miterlimit="10" stroke-linecap="round" stroke-linejoin="round"/>
<path d="M30.0824 74.7157C30.9568 74.7157 31.6656 74.0069 31.6656 73.1325C31.6656 72.2581 30.9568 71.5493 30.0824 71.5493C29.208 71.5493 28.4992 72.2581 28.4992 73.1325C28.4992 74.0069 29.208 74.7157 30.0824 74.7157Z" stroke="#003049" stroke-width="0.5" stroke-miterlimit="10" stroke-linecap="round" stroke-linejoin="round"/>
<path d="M30.0824 84.8934C29.1777 84.8934 28.4992 84.2149 28.4992 83.3102C28.4992 82.4055 29.1777 81.727 30.0824 81.727C30.9871 81.727 31.6656 82.4055 31.6656 83.3102C31.6656 84.1018 30.9871 84.8934 30.0824 84.8934Z" stroke="#003049" stroke-width="0.5" stroke-miterlimit="10" stroke-linecap="round" stroke-linejoin="round"/>
<path d="M39.6947 24.1664C40.5691 24.1664 41.2779 23.4576 41.2779 22.5832C41.2779 21.7088 40.5691 21 39.6947 21C38.8203 21 38.1115 21.7088 38.1115 22.5832C38.1115 23.4576 38.8203 24.1664 39.6947 24.1664Z" stroke="#003049" stroke-width="0.5" stroke-miterlimit="10" stroke-linecap="round" stroke-linejoin="round"/>
<path d="M39.6947 34.231C38.79 34.231 38.1115 33.5525 38.1115 32.6478C38.1115 31.7432 38.79 31.0646 39.6947 31.0646C40.5994 31.0646 41.2779 31.7432 41.2779 32.6478C41.2779 33.5525 40.4863 34.231 39.6947 34.231Z" stroke="#003049" stroke-width="0.5" stroke-miterlimit="10" stroke-linecap="round" stroke-linejoin="round"/>
<path d="M39.6947 44.4088C40.5691 44.4088 41.2779 43.7 41.2779 42.8256C41.2779 41.9512 40.5691 41.2424 39.6947 41.2424C38.8203 41.2424 38.1115 41.9512 38.1115 42.8256C38.1115 43.7 38.8203 44.4088 39.6947 44.4088Z" stroke="#003049" stroke-width="0.5" stroke-miterlimit="10" stroke-linecap="round" stroke-linejoin="round"/>
<path d="M39.6947 54.4733C40.5691 54.4733 41.2779 53.7645 41.2779 52.8901C41.2779 52.0158 40.5691 51.3069 39.6947 51.3069C38.8203 51.3069 38.1115 52.0158 38.1115 52.8901C38.1115 53.7645 38.8203 54.4733 39.6947 54.4733Z" stroke="#003049" stroke-width="0.5" stroke-miterlimit="10" stroke-linecap="round" stroke-linejoin="round"/>
<path d="M39.6947 64.651C40.5691 64.651 41.2779 63.9422 41.2779 63.0678C41.2779 62.1934 40.5691 61.4846 39.6947 61.4846C38.8203 61.4846 38.1115 62.1934 38.1115 63.0678C38.1115 63.9422 38.8203 64.651 39.6947 64.651Z" stroke="#003049" stroke-width="0.5" stroke-miterlimit="10" stroke-linecap="round" stroke-linejoin="round"/>
<path d="M39.6947 74.7157C40.5691 74.7157 41.2779 74.0069 41.2779 73.1325C41.2779 72.2581 40.5691 71.5493 39.6947 71.5493C38.8203 71.5493 38.1115 72.2581 38.1115 73.1325C38.1115 74.0069 38.8203 74.7157 39.6947 74.7157Z" stroke="#003049" stroke-width="0.5" stroke-miterlimit="10" stroke-linecap="round" stroke-linejoin="round"/>
<path d="M49.1939 24.1664C50.0682 24.1664 50.7771 23.4576 50.7771 22.5832C50.7771 21.7088 50.0682 21 49.1939 21C48.3195 21 47.6107 21.7088 47.6107 22.5832C47.6107 23.4576 48.3195 24.1664 49.1939 24.1664Z" stroke="#003049" stroke-width="0.5" stroke-miterlimit="10" stroke-linecap="round" stroke-linejoin="round"/>
<path d="M49.1939 34.231C48.2892 34.231 47.6107 33.5525 47.6107 32.6478C47.6107 31.7432 48.2892 31.0646 49.1939 31.0646C50.0985 31.0646 50.7771 31.7432 50.7771 32.6478C50.7771 33.5525 50.0985 34.231 49.1939 34.231Z" stroke="#003049" stroke-width="0.5" stroke-miterlimit="10" stroke-linecap="round" stroke-linejoin="round"/>
<path d="M49.1939 44.4088C50.0682 44.4088 50.7771 43.7 50.7771 42.8256C50.7771 41.9512 50.0682 41.2424 49.1939 41.2424C48.3195 41.2424 47.6107 41.9512 47.6107 42.8256C47.6107 43.7 48.3195 44.4088 49.1939 44.4088Z" stroke="#003049" stroke-width="0.5" stroke-miterlimit="10" stroke-linecap="round" stroke-linejoin="round"/>
<path d="M49.1939 54.4733C50.0682 54.4733 50.7771 53.7645 50.7771 52.8901C50.7771 52.0158 50.0682 51.3069 49.1939 51.3069C48.3195 51.3069 47.6107 52.0158 47.6107 52.8901C47.6107 53.7645 48.3195 54.4733 49.1939 54.4733Z" stroke="#003049" stroke-width="0.5" stroke-miterlimit="10" stroke-linecap="round" stroke-linejoin="round"/>
<path d="M49.1939 64.651C50.0682 64.651 50.7771 63.9422 50.7771 63.0678C50.7771 62.1934 50.0682 61.4846 49.1939 61.4846C48.3195 61.4846 47.6107 62.1934 47.6107 63.0678C47.6107 63.9422 48.3195 64.651 49.1939 64.651Z" stroke="#003049" stroke-width="0.5" stroke-miterlimit="10" stroke-linecap="round" stroke-linejoin="round"/>
<path d="M58.6931 24.1664C59.5674 24.1664 60.2763 23.4576 60.2763 22.5832C60.2763 21.7088 59.5674 21 58.6931 21C57.8187 21 57.1099 21.7088 57.1099 22.5832C57.1099 23.4576 57.8187 24.1664 58.6931 24.1664Z" stroke="#003049" stroke-width="0.5" stroke-miterlimit="10" stroke-linecap="round" stroke-linejoin="round"/>
<path d="M58.6931 34.231C57.7884 34.231 57.1099 33.5525 57.1099 32.6478C57.1099 31.7432 57.7884 31.0646 58.6931 31.0646C59.5978 31.0646 60.2763 31.7432 60.2763 32.6478C60.2763 33.5525 59.5978 34.231 58.6931 34.231Z" stroke="#003049" stroke-width="0.5" stroke-miterlimit="10" stroke-linecap="round" stroke-linejoin="round"/>
<path d="M58.6931 44.4088C59.5675 44.4088 60.2763 43.7 60.2763 42.8256C60.2763 41.9512 59.5675 41.2424 58.6931 41.2424C57.8187 41.2424 57.1099 41.9512 57.1099 42.8256C57.1099 43.7 57.8187 44.4088 58.6931 44.4088Z" stroke="#003049" stroke-width="0.5" stroke-miterlimit="10" stroke-linecap="round" stroke-linejoin="round"/>
<path d="M58.6931 54.4733C59.5675 54.4733 60.2763 53.7645 60.2763 52.8901C60.2763 52.0158 59.5675 51.3069 58.6931 51.3069C57.8187 51.3069 57.1099 52.0158 57.1099 52.8901C57.1099 53.7645 57.8187 54.4733 58.6931 54.4733Z" stroke="#003049" stroke-width="0.5" stroke-miterlimit="10" stroke-linecap="round" stroke-linejoin="round"/>
<path d="M68.3053 24.1664C67.4006 24.1664 66.7221 23.4879 66.7221 22.5832C66.7221 21.6785 67.4006 21 68.3053 21C69.21 21 69.8885 21.6785 69.8885 22.5832C69.8885 23.4879 69.21 24.1664 68.3053 24.1664Z" stroke="#003049" stroke-width="0.5" stroke-miterlimit="10" stroke-linecap="round" stroke-linejoin="round"/>
<path d="M68.3054 34.231C67.4007 34.231 66.7222 33.5525 66.7222 32.6478C66.7222 31.7432 67.4007 31.0646 68.3054 31.0646C69.21 31.0646 69.8886 31.7432 69.8886 32.6478C69.8886 33.5525 69.21 34.231 68.3054 34.231Z" stroke="#003049" stroke-width="0.5" stroke-miterlimit="10" stroke-linecap="round" stroke-linejoin="round"/>
<path d="M68.3054 44.4088C67.4007 44.4088 66.7222 43.7303 66.7222 42.8256C66.7222 41.9209 67.4007 41.2424 68.3054 41.2424C69.21 41.2424 69.8886 41.9209 69.8886 42.8256C69.8886 43.7303 69.21 44.4088 68.3054 44.4088Z" stroke="#003049" stroke-width="0.5" stroke-miterlimit="10" stroke-linecap="round" stroke-linejoin="round"/>
<path d="M77.8045 24.1664C76.8998 24.1664 76.2213 23.4879 76.2213 22.5832C76.2213 21.6785 76.8998 21 77.8045 21C78.7092 21 79.3877 21.6785 79.3877 22.5832C79.3877 23.4879 78.7092 24.1664 77.8045 24.1664Z" stroke="#003049" stroke-width="0.5" stroke-miterlimit="10" stroke-linecap="round" stroke-linejoin="round"/>
<path d="M77.8045 34.231C76.8998 34.231 76.2213 33.5525 76.2213 32.6478C76.2213 31.7432 76.8998 31.0646 77.8045 31.0646C78.7092 31.0646 79.3877 31.7432 79.3877 32.6478C79.3877 33.5525 78.7092 34.231 77.8045 34.231Z" stroke="#003049" stroke-width="0.5" stroke-miterlimit="10" stroke-linecap="round" stroke-linejoin="round"/>
<path d="M87.4168 24.1664C86.5121 24.1664 85.8336 23.4879 85.8336 22.5832C85.8336 21.6785 86.5121 21 87.4168 21C88.3215 21 89 21.6785 89 22.5832C89 23.4879 88.2084 24.1664 87.4168 24.1664Z" stroke="#003049" stroke-width="0.5" stroke-miterlimit="10" stroke-linecap="round" stroke-linejoin="round"/>
</g>
<rect x="4" y="4" width="408" height="508" stroke="#003049" stroke-width="8"/>
</svg>
