<svg width="404" height="502" viewBox="0 0 404 502" fill="none" xmlns="http://www.w3.org/2000/svg">
<path d="M139.929 344.337C139.929 347.02 137.753 349.201 135.074 349.201C132.396 349.201 130.22 347.02 130.22 344.337C130.22 341.653 132.396 339.472 135.074 339.472C137.753 339.472 139.929 341.653 139.929 344.337Z" stroke="#F77F00" stroke-width="2" stroke-miterlimit="10" stroke-linecap="round" stroke-linejoin="round"/>
<path d="M166.711 349.201C169.392 349.201 171.566 347.023 171.566 344.337C171.566 341.65 169.392 339.472 166.711 339.472C164.03 339.472 161.857 341.65 161.857 344.337C161.857 347.023 164.03 349.201 166.711 349.201Z" stroke="#F77F00" stroke-width="2" stroke-miterlimit="10" stroke-linecap="round" stroke-linejoin="round"/>
<path d="M198.181 349.201C200.862 349.201 203.035 347.023 203.035 344.337C203.035 341.65 200.862 339.472 198.181 339.472C195.5 339.472 193.327 341.65 193.327 344.337C193.327 347.023 195.5 349.201 198.181 349.201Z" stroke="#F77F00" stroke-width="2" stroke-miterlimit="10" stroke-linecap="round" stroke-linejoin="round"/>
<path d="M229.818 349.201C232.499 349.201 234.673 347.023 234.673 344.337C234.673 341.65 232.499 339.472 229.818 339.472C227.137 339.472 224.964 341.65 224.964 344.337C224.964 347.023 227.137 349.201 229.818 349.201Z" stroke="#F77F00" stroke-width="2" stroke-miterlimit="10" stroke-linecap="round" stroke-linejoin="round"/>
<path d="M261.288 349.201C263.969 349.201 266.142 347.023 266.142 344.337C266.142 341.65 263.969 339.472 261.288 339.472C258.607 339.472 256.433 341.65 256.433 344.337C256.433 347.023 258.607 349.201 261.288 349.201Z" stroke="#F77F00" stroke-width="2" stroke-miterlimit="10" stroke-linecap="round" stroke-linejoin="round"/>
<path d="M292.925 349.201C295.606 349.201 297.779 347.023 297.779 344.337C297.779 341.65 295.606 339.472 292.925 339.472C290.244 339.472 288.071 341.65 288.071 344.337C288.071 347.023 290.244 349.201 292.925 349.201Z" stroke="#F77F00" stroke-width="2" stroke-miterlimit="10" stroke-linecap="round" stroke-linejoin="round"/>
<path d="M324.395 349.201C327.076 349.201 329.249 347.023 329.249 344.337C329.249 341.65 327.076 339.472 324.395 339.472C321.714 339.472 319.54 341.65 319.54 344.337C319.54 347.023 321.714 349.201 324.395 349.201Z" stroke="#F77F00" stroke-width="2" stroke-miterlimit="10" stroke-linecap="round" stroke-linejoin="round"/>
<path d="M360.886 344.337C360.886 347.021 358.71 349.201 356.032 349.201C353.353 349.201 351.177 347.021 351.177 344.337C351.177 341.653 353.353 339.472 356.032 339.472C358.71 339.472 360.886 341.653 360.886 344.337Z" stroke="#F77F00" stroke-width="2" stroke-miterlimit="10" stroke-linecap="round" stroke-linejoin="round"/>
<path d="M139.929 314.48C139.929 317.163 137.753 319.344 135.074 319.344C132.396 319.344 130.22 317.163 130.22 314.48C130.22 311.796 132.396 309.615 135.074 309.615C137.753 309.615 139.929 311.796 139.929 314.48Z" stroke="#F77F00" stroke-width="2" stroke-miterlimit="10" stroke-linecap="round" stroke-linejoin="round"/>
<path d="M166.711 319.344C169.392 319.344 171.566 317.166 171.566 314.48C171.566 311.793 169.392 309.615 166.711 309.615C164.03 309.615 161.857 311.793 161.857 314.48C161.857 317.166 164.03 319.344 166.711 319.344Z" stroke="#F77F00" stroke-width="2" stroke-miterlimit="10" stroke-linecap="round" stroke-linejoin="round"/>
<path d="M198.181 319.344C200.862 319.344 203.035 317.166 203.035 314.48C203.035 311.793 200.862 309.615 198.181 309.615C195.5 309.615 193.327 311.793 193.327 314.48C193.327 317.166 195.5 319.344 198.181 319.344Z" stroke="#F77F00" stroke-width="2" stroke-miterlimit="10" stroke-linecap="round" stroke-linejoin="round"/>
<path d="M229.818 319.344C232.499 319.344 234.673 317.166 234.673 314.48C234.673 311.793 232.499 309.615 229.818 309.615C227.137 309.615 224.964 311.793 224.964 314.48C224.964 317.166 227.137 319.344 229.818 319.344Z" stroke="#F77F00" stroke-width="2" stroke-miterlimit="10" stroke-linecap="round" stroke-linejoin="round"/>
<path d="M261.288 319.344C263.969 319.344 266.142 317.166 266.142 314.48C266.142 311.793 263.969 309.615 261.288 309.615C258.607 309.615 256.433 311.793 256.433 314.48C256.433 317.166 258.607 319.344 261.288 319.344Z" stroke="#F77F00" stroke-width="2" stroke-miterlimit="10" stroke-linecap="round" stroke-linejoin="round"/>
<path d="M292.925 319.344C295.606 319.344 297.779 317.166 297.779 314.48C297.779 311.793 295.606 309.615 292.925 309.615C290.244 309.615 288.071 311.793 288.071 314.48C288.071 317.166 290.244 319.344 292.925 319.344Z" stroke="#F77F00" stroke-width="2" stroke-miterlimit="10" stroke-linecap="round" stroke-linejoin="round"/>
<path d="M324.395 319.344C327.076 319.344 329.249 317.166 329.249 314.48C329.249 311.793 327.076 309.615 324.395 309.615C321.714 309.615 319.54 311.793 319.54 314.48C319.54 317.166 321.714 319.344 324.395 319.344Z" stroke="#F77F00" stroke-width="2" stroke-miterlimit="10" stroke-linecap="round" stroke-linejoin="round"/>
<path d="M360.886 314.48C360.886 317.163 358.71 319.344 356.032 319.344C353.353 319.344 351.177 317.163 351.177 314.48C351.177 311.796 353.353 309.615 356.032 309.615C358.71 309.615 360.886 311.796 360.886 314.48Z" stroke="#F77F00" stroke-width="2" stroke-miterlimit="10" stroke-linecap="round" stroke-linejoin="round"/>
<path d="M139.929 284.622C139.929 287.306 137.753 289.487 135.074 289.487C132.396 289.487 130.22 287.306 130.22 284.622C130.22 281.939 132.396 279.758 135.074 279.758C137.753 279.758 139.929 281.939 139.929 284.622Z" stroke="#F77F00" stroke-width="2" stroke-miterlimit="10" stroke-linecap="round" stroke-linejoin="round"/>
<path d="M166.711 289.487C169.392 289.487 171.566 287.309 171.566 284.622C171.566 281.936 169.392 279.758 166.711 279.758C164.03 279.758 161.857 281.936 161.857 284.622C161.857 287.309 164.03 289.487 166.711 289.487Z" stroke="#F77F00" stroke-width="2" stroke-miterlimit="10" stroke-linecap="round" stroke-linejoin="round"/>
<path d="M198.181 289.487C200.862 289.487 203.035 287.309 203.035 284.622C203.035 281.936 200.862 279.758 198.181 279.758C195.5 279.758 193.327 281.936 193.327 284.622C193.327 287.309 195.5 289.487 198.181 289.487Z" stroke="#F77F00" stroke-width="2" stroke-miterlimit="10" stroke-linecap="round" stroke-linejoin="round"/>
<path d="M229.818 289.487C232.499 289.487 234.673 287.309 234.673 284.622C234.673 281.936 232.499 279.758 229.818 279.758C227.137 279.758 224.964 281.936 224.964 284.622C224.964 287.309 227.137 289.487 229.818 289.487Z" stroke="#F77F00" stroke-width="2" stroke-miterlimit="10" stroke-linecap="round" stroke-linejoin="round"/>
<path d="M261.288 289.487C263.969 289.487 266.142 287.309 266.142 284.622C266.142 281.936 263.969 279.758 261.288 279.758C258.607 279.758 256.433 281.936 256.433 284.622C256.433 287.309 258.607 289.487 261.288 289.487Z" stroke="#F77F00" stroke-width="2" stroke-miterlimit="10" stroke-linecap="round" stroke-linejoin="round"/>
<path d="M292.925 289.487C295.606 289.487 297.779 287.309 297.779 284.622C297.779 281.936 295.606 279.758 292.925 279.758C290.244 279.758 288.071 281.936 288.071 284.622C288.071 287.309 290.244 289.487 292.925 289.487Z" stroke="#F77F00" stroke-width="2" stroke-miterlimit="10" stroke-linecap="round" stroke-linejoin="round"/>
<path d="M324.395 289.487C327.076 289.487 329.249 287.309 329.249 284.622C329.249 281.936 327.076 279.758 324.395 279.758C321.714 279.758 319.54 281.936 319.54 284.622C319.54 287.309 321.714 289.487 324.395 289.487Z" stroke="#F77F00" stroke-width="2" stroke-miterlimit="10" stroke-linecap="round" stroke-linejoin="round"/>
<path d="M360.886 284.622C360.886 287.306 358.71 289.487 356.032 289.487C353.353 289.487 351.177 287.306 351.177 284.622C351.177 281.939 353.353 279.758 356.032 279.758C358.71 279.758 360.886 281.939 360.886 284.622Z" stroke="#F77F00" stroke-width="2" stroke-miterlimit="10" stroke-linecap="round" stroke-linejoin="round"/>
<path d="M139.929 254.765C139.929 257.449 137.753 259.63 135.074 259.63C132.396 259.63 130.22 257.449 130.22 254.765C130.22 252.081 132.396 249.901 135.074 249.901C137.753 249.901 139.929 252.081 139.929 254.765Z" stroke="#F77F00" stroke-width="2" stroke-miterlimit="10" stroke-linecap="round" stroke-linejoin="round"/>
<path d="M171.566 254.765C171.566 257.449 169.39 259.63 166.711 259.63C164.033 259.63 161.857 257.449 161.857 254.765C161.857 252.081 164.033 249.901 166.711 249.901C169.39 249.901 171.566 252.081 171.566 254.765Z" stroke="#F77F00" stroke-width="2" stroke-miterlimit="10" stroke-linecap="round" stroke-linejoin="round"/>
<path d="M203.203 254.765C203.203 257.449 201.027 259.63 198.348 259.63C195.67 259.63 193.494 257.449 193.494 254.765C193.494 252.081 195.67 249.901 198.348 249.901C200.859 249.901 203.203 252.081 203.203 254.765Z" stroke="#F77F00" stroke-width="2" stroke-miterlimit="10" stroke-linecap="round" stroke-linejoin="round"/>
<path d="M234.673 254.765C234.673 257.449 232.496 259.63 229.818 259.63C227.14 259.63 224.964 257.449 224.964 254.765C224.964 252.081 227.14 249.901 229.818 249.901C232.496 249.901 234.673 252.081 234.673 254.765Z" stroke="#F77F00" stroke-width="2" stroke-miterlimit="10" stroke-linecap="round" stroke-linejoin="round"/>
<path d="M266.31 254.765C266.31 257.449 264.133 259.63 261.455 259.63C258.777 259.63 256.601 257.449 256.601 254.765C256.601 252.081 258.777 249.901 261.455 249.901C264.133 249.901 266.31 252.081 266.31 254.765Z" stroke="#F77F00" stroke-width="2" stroke-miterlimit="10" stroke-linecap="round" stroke-linejoin="round"/>
<path d="M297.779 254.765C297.779 257.449 295.603 259.63 292.925 259.63C290.247 259.63 288.071 257.449 288.071 254.765C288.071 252.081 290.247 249.901 292.925 249.901C295.603 249.901 297.779 252.081 297.779 254.765Z" stroke="#F77F00" stroke-width="2" stroke-miterlimit="10" stroke-linecap="round" stroke-linejoin="round"/>
<path d="M329.416 254.765C329.416 257.449 327.24 259.63 324.562 259.63C321.884 259.63 319.708 257.449 319.708 254.765C319.708 252.081 321.884 249.901 324.562 249.901C327.24 249.901 329.416 252.081 329.416 254.765Z" stroke="#F77F00" stroke-width="2" stroke-miterlimit="10" stroke-linecap="round" stroke-linejoin="round"/>
<path d="M360.886 254.765C360.886 257.449 358.71 259.63 356.032 259.63C353.353 259.63 351.177 257.449 351.177 254.765C351.177 252.081 353.353 249.901 356.032 249.901C358.71 249.901 360.886 252.081 360.886 254.765Z" stroke="#F77F00" stroke-width="2" stroke-miterlimit="10" stroke-linecap="round" stroke-linejoin="round"/>
<path d="M139.929 224.908C139.929 227.592 137.753 229.772 135.074 229.772C132.396 229.772 130.22 227.592 130.22 224.908C130.22 222.224 132.396 220.044 135.074 220.044C137.753 220.044 139.929 222.224 139.929 224.908Z" stroke="#F77F00" stroke-width="2" stroke-miterlimit="10" stroke-linecap="round" stroke-linejoin="round"/>
<path d="M171.566 224.908C171.566 227.592 169.39 229.772 166.711 229.772C164.033 229.772 161.857 227.592 161.857 224.908C161.857 222.224 164.033 220.044 166.711 220.044C169.39 220.044 171.566 222.224 171.566 224.908Z" stroke="#F77F00" stroke-width="2" stroke-miterlimit="10" stroke-linecap="round" stroke-linejoin="round"/>
<path d="M203.203 224.908C203.203 227.592 201.027 229.772 198.348 229.772C195.67 229.772 193.494 227.592 193.494 224.908C193.494 222.224 195.67 220.044 198.348 220.044C200.859 220.044 203.203 222.224 203.203 224.908Z" stroke="#F77F00" stroke-width="2" stroke-miterlimit="10" stroke-linecap="round" stroke-linejoin="round"/>
<path d="M234.673 224.908C234.673 227.592 232.496 229.772 229.818 229.772C227.14 229.772 224.964 227.592 224.964 224.908C224.964 222.224 227.14 220.044 229.818 220.044C232.496 220.044 234.673 222.224 234.673 224.908Z" stroke="#F77F00" stroke-width="2" stroke-miterlimit="10" stroke-linecap="round" stroke-linejoin="round"/>
<path d="M266.31 224.908C266.31 227.592 264.133 229.772 261.455 229.772C258.777 229.772 256.601 227.592 256.601 224.908C256.601 222.224 258.777 220.044 261.455 220.044C264.133 220.044 266.31 222.224 266.31 224.908Z" stroke="#F77F00" stroke-width="2" stroke-miterlimit="10" stroke-linecap="round" stroke-linejoin="round"/>
<path d="M297.779 224.908C297.779 227.592 295.603 229.772 292.925 229.772C290.247 229.772 288.071 227.592 288.071 224.908C288.071 222.224 290.247 220.044 292.925 220.044C295.603 220.044 297.779 222.224 297.779 224.908Z" stroke="#F77F00" stroke-width="2" stroke-miterlimit="10" stroke-linecap="round" stroke-linejoin="round"/>
<path d="M329.416 224.908C329.416 227.592 327.24 229.772 324.562 229.772C321.884 229.772 319.708 227.592 319.708 224.908C319.708 222.224 321.884 220.044 324.562 220.044C327.24 220.044 329.416 222.224 329.416 224.908Z" stroke="#F77F00" stroke-width="2" stroke-miterlimit="10" stroke-linecap="round" stroke-linejoin="round"/>
<path d="M360.886 224.908C360.886 227.592 358.71 229.772 356.032 229.772C353.353 229.772 351.177 227.592 351.177 224.908C351.177 222.224 353.353 220.044 356.032 220.044C358.71 220.044 360.886 222.224 360.886 224.908Z" stroke="#F77F00" stroke-width="2" stroke-miterlimit="10" stroke-linecap="round" stroke-linejoin="round"/>
<path d="M139.929 195.051C139.929 197.734 137.753 199.915 135.074 199.915C132.396 199.915 130.22 197.734 130.22 195.051C130.22 192.367 132.396 190.186 135.074 190.186C137.753 190.186 139.929 192.367 139.929 195.051Z" stroke="#F77F00" stroke-width="2" stroke-miterlimit="10" stroke-linecap="round" stroke-linejoin="round"/>
<path d="M171.566 195.051C171.566 197.734 169.39 199.915 166.711 199.915C164.033 199.915 161.857 197.734 161.857 195.051C161.857 192.367 164.033 190.186 166.711 190.186C169.39 190.186 171.566 192.367 171.566 195.051Z" stroke="#F77F00" stroke-width="2" stroke-miterlimit="10" stroke-linecap="round" stroke-linejoin="round"/>
<path d="M203.203 195.051C203.203 197.734 201.027 199.915 198.348 199.915C195.67 199.915 193.494 197.734 193.494 195.051C193.494 192.367 195.67 190.186 198.348 190.186C200.859 190.186 203.203 192.367 203.203 195.051Z" stroke="#F77F00" stroke-width="2" stroke-miterlimit="10" stroke-linecap="round" stroke-linejoin="round"/>
<path d="M234.673 195.051C234.673 197.734 232.496 199.915 229.818 199.915C227.14 199.915 224.964 197.734 224.964 195.051C224.964 192.367 227.14 190.186 229.818 190.186C232.496 190.186 234.673 192.367 234.673 195.051Z" stroke="#F77F00" stroke-width="2" stroke-miterlimit="10" stroke-linecap="round" stroke-linejoin="round"/>
<path d="M266.31 195.051C266.31 197.734 264.133 199.915 261.455 199.915C258.777 199.915 256.601 197.734 256.601 195.051C256.601 192.367 258.777 190.186 261.455 190.186C264.133 190.186 266.31 192.367 266.31 195.051Z" stroke="#F77F00" stroke-width="2" stroke-miterlimit="10" stroke-linecap="round" stroke-linejoin="round"/>
<path d="M297.779 195.051C297.779 197.734 295.603 199.915 292.925 199.915C290.247 199.915 288.071 197.734 288.071 195.051C288.071 192.367 290.247 190.186 292.925 190.186C295.603 190.186 297.779 192.367 297.779 195.051Z" stroke="#F77F00" stroke-width="2" stroke-miterlimit="10" stroke-linecap="round" stroke-linejoin="round"/>
<path d="M329.416 195.051C329.416 197.734 327.24 199.915 324.562 199.915C321.884 199.915 319.708 197.734 319.708 195.051C319.708 192.367 321.884 190.186 324.562 190.186C327.24 190.186 329.416 192.367 329.416 195.051Z" stroke="#F77F00" stroke-width="2" stroke-miterlimit="10" stroke-linecap="round" stroke-linejoin="round"/>
<path d="M360.886 195.051C360.886 197.734 358.71 199.915 356.032 199.915C353.353 199.915 351.177 197.734 351.177 195.051C351.177 192.367 353.353 190.186 356.032 190.186C358.71 190.186 360.886 192.367 360.886 195.051Z" stroke="#F77F00" stroke-width="2" stroke-miterlimit="10" stroke-linecap="round" stroke-linejoin="round"/>
<path d="M139.929 165.194C139.929 167.877 137.753 170.058 135.074 170.058C132.396 170.058 130.22 167.877 130.22 165.194C130.22 162.51 132.396 160.329 135.074 160.329C137.753 160.329 139.929 162.51 139.929 165.194Z" stroke="#F77F00" stroke-width="2" stroke-miterlimit="10" stroke-linecap="round" stroke-linejoin="round"/>
<path d="M166.711 170.058C169.392 170.058 171.566 167.88 171.566 165.194C171.566 162.507 169.392 160.329 166.711 160.329C164.03 160.329 161.857 162.507 161.857 165.194C161.857 167.88 164.03 170.058 166.711 170.058Z" stroke="#F77F00" stroke-width="2" stroke-miterlimit="10" stroke-linecap="round" stroke-linejoin="round"/>
<path d="M198.181 170.058C200.862 170.058 203.035 167.88 203.035 165.194C203.035 162.507 200.862 160.329 198.181 160.329C195.5 160.329 193.327 162.507 193.327 165.194C193.327 167.88 195.5 170.058 198.181 170.058Z" stroke="#F77F00" stroke-width="2" stroke-miterlimit="10" stroke-linecap="round" stroke-linejoin="round"/>
<path d="M229.818 170.058C232.499 170.058 234.673 167.88 234.673 165.194C234.673 162.507 232.499 160.329 229.818 160.329C227.137 160.329 224.964 162.507 224.964 165.194C224.964 167.88 227.137 170.058 229.818 170.058Z" stroke="#F77F00" stroke-width="2" stroke-miterlimit="10" stroke-linecap="round" stroke-linejoin="round"/>
<path d="M261.288 170.058C263.969 170.058 266.142 167.88 266.142 165.194C266.142 162.507 263.969 160.329 261.288 160.329C258.607 160.329 256.433 162.507 256.433 165.194C256.433 167.88 258.607 170.058 261.288 170.058Z" stroke="#F77F00" stroke-width="2" stroke-miterlimit="10" stroke-linecap="round" stroke-linejoin="round"/>
<path d="M292.925 170.058C295.606 170.058 297.779 167.88 297.779 165.194C297.779 162.507 295.606 160.329 292.925 160.329C290.244 160.329 288.071 162.507 288.071 165.194C288.071 167.88 290.244 170.058 292.925 170.058Z" stroke="#F77F00" stroke-width="2" stroke-miterlimit="10" stroke-linecap="round" stroke-linejoin="round"/>
<path d="M324.395 170.058C327.076 170.058 329.249 167.88 329.249 165.194C329.249 162.507 327.076 160.329 324.395 160.329C321.714 160.329 319.54 162.507 319.54 165.194C319.54 167.88 321.714 170.058 324.395 170.058Z" stroke="#F77F00" stroke-width="2" stroke-miterlimit="10" stroke-linecap="round" stroke-linejoin="round"/>
<path d="M360.886 165.194C360.886 167.877 358.71 170.058 356.032 170.058C353.353 170.058 351.177 167.877 351.177 165.194C351.177 162.51 353.353 160.329 356.032 160.329C358.71 160.329 360.886 162.51 360.886 165.194Z" stroke="#F77F00" stroke-width="2" stroke-miterlimit="10" stroke-linecap="round" stroke-linejoin="round"/>
<path d="M139.929 135.336C139.929 138.02 137.753 140.201 135.074 140.201C132.396 140.201 130.22 138.02 130.22 135.336C130.22 132.653 132.396 130.472 135.074 130.472C137.753 130.472 139.929 132.653 139.929 135.336Z" stroke="#F77F00" stroke-width="2" stroke-miterlimit="10" stroke-linecap="round" stroke-linejoin="round"/>
<path d="M166.711 140.201C169.392 140.201 171.566 138.023 171.566 135.336C171.566 132.65 169.392 130.472 166.711 130.472C164.03 130.472 161.857 132.65 161.857 135.336C161.857 138.023 164.03 140.201 166.711 140.201Z" stroke="#F77F00" stroke-width="2" stroke-miterlimit="10" stroke-linecap="round" stroke-linejoin="round"/>
<path d="M198.181 140.201C200.862 140.201 203.035 138.023 203.035 135.336C203.035 132.65 200.862 130.472 198.181 130.472C195.5 130.472 193.327 132.65 193.327 135.336C193.327 138.023 195.5 140.201 198.181 140.201Z" stroke="#F77F00" stroke-width="2" stroke-miterlimit="10" stroke-linecap="round" stroke-linejoin="round"/>
<path d="M229.818 140.201C232.499 140.201 234.673 138.023 234.673 135.336C234.673 132.65 232.499 130.472 229.818 130.472C227.137 130.472 224.964 132.65 224.964 135.336C224.964 138.023 227.137 140.201 229.818 140.201Z" stroke="#F77F00" stroke-width="2" stroke-miterlimit="10" stroke-linecap="round" stroke-linejoin="round"/>
<path d="M261.288 140.201C263.969 140.201 266.142 138.023 266.142 135.336C266.142 132.65 263.969 130.472 261.288 130.472C258.607 130.472 256.433 132.65 256.433 135.336C256.433 138.023 258.607 140.201 261.288 140.201Z" stroke="#F77F00" stroke-width="2" stroke-miterlimit="10" stroke-linecap="round" stroke-linejoin="round"/>
<path d="M292.925 140.201C295.606 140.201 297.779 138.023 297.779 135.336C297.779 132.65 295.606 130.472 292.925 130.472C290.244 130.472 288.071 132.65 288.071 135.336C288.071 138.023 290.244 140.201 292.925 140.201Z" stroke="#F77F00" stroke-width="2" stroke-miterlimit="10" stroke-linecap="round" stroke-linejoin="round"/>
<path d="M324.395 140.201C327.076 140.201 329.249 138.023 329.249 135.336C329.249 132.65 327.076 130.472 324.395 130.472C321.714 130.472 319.54 132.65 319.54 135.336C319.54 138.023 321.714 140.201 324.395 140.201Z" stroke="#F77F00" stroke-width="2" stroke-miterlimit="10" stroke-linecap="round" stroke-linejoin="round"/>
<path d="M360.886 135.336C360.886 138.02 358.71 140.201 356.032 140.201C353.353 140.201 351.177 138.02 351.177 135.336C351.177 132.653 353.353 130.472 356.032 130.472C358.71 130.472 360.886 132.653 360.886 135.336Z" stroke="#F77F00" stroke-width="2" stroke-miterlimit="10" stroke-linecap="round" stroke-linejoin="round"/>
<mask id="mask0_4_1868" style="mask-type:alpha" maskUnits="userSpaceOnUse" x="-1" y="-3" width="406" height="507">
<rect x="1.5" y="-0.5" width="401" height="502" fill="black" stroke="black" stroke-width="5"/>
</mask>
<g mask="url(#mask0_4_1868)">
<path d="M228.712 346.051C224.328 336.971 226.958 316.469 226.958 316.469L202.114 314.712L177.27 316.469C177.27 316.469 179.9 336.971 175.516 346.051C171.132 355.131 129.919 359.524 129.919 359.524C129.919 359.524 129.919 370.361 136.934 384.42C142.487 395.549 179.9 400.822 195.391 402.579C199.776 403.165 204.452 403.165 208.837 402.579C224.328 400.822 261.448 395.842 267.294 384.42C274.309 370.068 274.309 359.524 274.309 359.524C274.309 359.524 233.389 354.838 228.712 346.051Z" fill="#E7AA9E"/>
<path d="M228.712 346.051C224.328 336.972 226.958 316.469 226.958 316.469L202.114 314.712L177.27 316.469C177.27 316.469 178.146 323.206 178.146 330.528C186.915 340.779 198.899 348.98 214.975 352.202C226.666 354.545 237.189 355.131 246.834 354.252C238.065 352.202 230.466 349.566 228.712 346.051Z" fill="#D9998D"/>
<path d="M141.026 258.77C141.026 258.77 135.18 245.297 124.073 250.569C112.966 255.841 122.319 279.565 133.426 282.494C144.533 285.423 147.456 280.151 146.287 272.535C145.118 264.92 141.026 258.77 141.026 258.77Z" fill="#E7AA9E"/>
<path d="M142.195 266.385C142.195 266.385 133.719 250.569 126.119 255.841C120.858 259.649 127.288 271.071 127.288 268.435C127.581 265.799 123.489 260.234 126.412 258.77C129.334 257.598 134.303 260.234 133.134 262.87C131.965 265.506 130.211 271.071 132.55 270.778C134.888 270.485 136.934 269.021 136.934 270.485C136.934 271.95 134.011 272.243 135.472 275.757C136.934 278.979 143.072 279.272 143.364 274.879C143.656 270.193 142.195 266.385 142.195 266.385Z" fill="#D9998D"/>
<path d="M263.202 258.77C263.202 258.77 269.048 245.297 280.155 250.569C291.262 255.841 281.909 279.565 270.802 282.494C259.695 285.423 256.772 280.151 257.941 272.535C259.11 264.92 263.202 258.77 263.202 258.77Z" fill="#E7AA9E"/>
<path d="M262.617 266.385C262.617 266.385 271.094 250.569 278.693 255.841C283.954 259.649 277.524 271.071 277.524 268.435C277.232 265.799 281.324 260.234 278.401 258.77C275.478 257.598 270.509 260.234 271.678 262.87C272.848 265.506 274.601 271.071 272.263 270.778C269.925 270.485 267.879 269.021 267.879 270.485C267.879 271.95 270.802 272.243 269.34 275.757C267.879 278.979 261.741 279.272 261.448 274.879C260.864 270.193 262.617 266.385 262.617 266.385Z" fill="#D9998D"/>
<path d="M267.002 197.263C254.141 158.308 202.114 158.308 202.114 158.308C202.114 158.308 150.087 158.308 137.226 197.263C127.581 227.137 133.719 283.08 154.179 311.197C159.148 318.226 164.701 323.498 170.255 327.599C189.253 342.243 215.559 342.243 234.558 327.599C240.111 323.498 245.373 318.226 250.634 311.197C270.509 283.08 276.647 227.137 267.002 197.263Z" fill="#E7AA9E"/>
<path d="M206.498 312.369C207.375 311.783 196.853 312.954 189.838 310.026C189.838 310.026 195.684 319.691 206.498 312.369Z" fill="#DA9B90"/>
<path d="M220.236 160.651C233.973 183.204 256.187 228.016 249.172 266.385C241.573 308.268 225.789 331.114 199.191 338.143C211.467 338.729 223.743 335.214 234.266 327.306C239.819 323.206 245.08 317.934 250.341 310.904C270.509 283.08 276.94 226.845 267.294 196.97C259.11 173.539 236.604 164.166 220.236 160.651Z" fill="#DA9B90"/>
<path d="M202.406 288.938C202.114 288.938 201.822 288.938 201.529 288.938C200.945 288.938 200.653 288.352 200.653 287.766C200.653 287.18 201.237 286.887 201.822 286.887C203.283 287.18 211.467 285.716 214.39 281.908C216.436 279.272 211.76 271.657 208.544 266.092C207.083 263.749 205.914 261.699 205.037 259.941C202.114 254.084 206.498 248.812 209.421 247.054C210.006 246.761 210.59 246.761 210.883 247.347C211.175 247.933 211.175 248.519 210.59 248.812C210.298 249.104 204.452 253.205 207.083 258.77C207.96 260.527 209.129 262.577 210.298 264.921C214.39 271.95 218.774 279.565 215.852 283.373C213.221 286.887 205.621 288.938 202.406 288.938Z" fill="#AE634D"/>
<path d="M203.575 307.975C186.915 307.975 181.069 297.724 180.777 297.138C180.485 296.553 180.777 295.967 181.069 295.674C181.654 295.381 182.238 295.674 182.531 295.967C182.823 296.553 190.715 309.733 214.098 304.461C214.682 304.461 215.267 304.754 215.559 305.339C215.559 305.925 215.267 306.511 214.682 306.804C210.59 307.39 207.083 307.975 203.575 307.975Z" fill="#AE634D"/>
<path d="M173.178 263.163C177.375 263.163 180.777 259.754 180.777 255.548C180.777 251.342 177.375 247.933 173.178 247.933C168.98 247.933 165.578 251.342 165.578 255.548C165.578 259.754 168.98 263.163 173.178 263.163Z" fill="#521C11"/>
<path d="M176.393 259.355C177.684 259.355 178.731 258.306 178.731 257.012C178.731 255.718 177.684 254.669 176.393 254.669C175.101 254.669 174.054 255.718 174.054 257.012C174.054 258.306 175.101 259.355 176.393 259.355Z" fill="white"/>
<path d="M231.927 263.163C236.124 263.163 239.527 259.754 239.527 255.548C239.527 251.342 236.124 247.933 231.927 247.933C227.73 247.933 224.328 251.342 224.328 255.548C224.328 259.754 227.73 263.163 231.927 263.163Z" fill="#521C11"/>
<path d="M234.85 259.355C236.142 259.355 237.189 258.306 237.189 257.012C237.189 255.718 236.142 254.669 234.85 254.669C233.559 254.669 232.512 255.718 232.512 257.012C232.512 258.306 233.559 259.355 234.85 259.355Z" fill="white"/>
<path d="M181.362 237.974C181.362 237.974 174.639 230.945 167.04 233.874C159.44 236.803 156.809 242.368 156.809 242.368C156.809 242.368 169.378 233.581 181.362 237.974Z" fill="#521C11"/>
<path d="M221.697 237.974C221.697 237.974 228.42 230.945 236.019 233.874C243.619 236.803 246.249 242.368 246.249 242.368C246.249 242.368 233.681 233.581 221.697 237.974Z" fill="#521C11"/>
<path d="M334.228 494.617H70C70 494.617 73.5075 400.013 91.0447 376.289C106.828 354.908 159.44 348.172 169.67 347C172.593 361.352 186.038 371.896 202.114 371.896C218.19 371.896 231.635 361.059 234.558 347C244.788 348.172 297.4 354.908 313.183 376.289C330.721 400.013 334.228 494.617 334.228 494.617Z" fill="#2A407B"/>
<path d="M122.319 423.081C122.319 423.374 115.889 453.542 113.843 493.668H109.751C111.505 452.956 118.227 422.495 118.227 422.202C118.52 421.031 119.689 420.445 120.858 420.445C121.735 420.738 122.319 421.91 122.319 423.081Z" fill="#20315A"/>
<path d="M294.477 493.668H290.385C288.631 453.542 282.201 423.374 281.909 423.081C281.616 421.909 282.493 420.738 283.662 420.445C284.831 420.152 286.001 421.031 286.293 422.202C286.001 422.495 292.723 452.956 294.477 493.668Z" fill="#20315A"/>
<path d="M138.98 276.343C138.98 276.343 138.103 264.92 125.242 227.723C115.012 197.556 132.842 177.932 132.842 177.932C132.842 177.932 118.52 185.254 118.52 181.447C118.52 177.932 135.18 160.358 148.041 155.672C160.609 150.986 162.948 150.986 162.948 150.986C162.948 150.986 142.487 153.329 146.872 149.814C150.964 146.3 164.117 140.735 181.362 140.735C198.607 140.735 206.206 143.957 206.206 143.957C206.206 143.957 191.884 138.685 193.638 137.806C195.391 137.22 212.052 133.12 228.42 141.613C244.496 150.107 247.126 155.379 247.126 153.622C247.126 151.865 243.619 142.199 247.126 144.542C250.634 146.886 254.434 157.137 254.434 157.137C254.434 157.137 269.34 153.622 268.171 155.379C267.002 157.137 256.772 163.873 256.772 163.873C256.772 163.873 274.017 170.024 278.401 181.154C293.308 219.522 271.094 240.903 267.002 274.293C267.002 274.293 265.248 246.761 261.156 239.439C257.064 232.117 249.172 219.522 246.542 209.857C244.203 200.192 244.203 191.405 244.203 191.112C244.203 191.991 230.758 199.02 229.297 199.899C222.282 203.706 214.975 207.221 207.375 210.15C209.129 205.464 210.59 201.07 212.344 196.384C202.699 208.1 188.961 216.301 174.347 219.522C176.685 214.543 178.439 209.271 179.316 203.706C174.639 208.685 169.962 213.664 165.286 218.351C160.609 223.33 155.64 228.895 155.056 235.631C155.056 230.945 155.056 225.966 155.056 221.28C155.056 222.744 152.133 226.259 151.548 227.723C150.671 230.066 150.087 232.702 149.502 235.338C148.333 239.439 146.579 243.539 145.41 247.347C141.611 257.012 141.026 262.87 138.98 276.343Z" fill="#521C11"/>
<path opacity="0.5" d="M334.228 493.667C334.228 493.667 330.721 399.064 313.183 375.34C297.4 353.959 244.788 347.222 234.558 346.051C233.973 349.273 232.804 352.201 231.05 354.837C233.389 355.423 255.603 360.695 266.417 389.399C274.601 410.78 267.002 462.914 263.494 493.667H334.228Z" fill="#2A407B"/>
<path d="M163.24 346.637C166.747 363.917 182.823 376.804 202.114 376.804C221.405 376.804 237.481 363.917 240.988 346.637C238.358 346.344 236.019 346.051 234.85 345.758C231.927 360.11 218.482 370.947 202.406 370.947C186.33 370.947 172.885 360.11 169.962 345.758C168.209 346.051 165.87 346.344 163.24 346.637Z" fill="white"/>
<path d="M32.25 31.328L41.853 36.8684L32.25 42.4088V31.328Z" fill="#FCBF49"/>
<path d="M46.024 31.328L55.627 36.8684L46.024 42.4088V31.328Z" fill="#FCBF49"/>
<path d="M59.895 31.328L69.401 36.8684L59.895 42.4088V31.328Z" fill="#FCBF49"/>
<path d="M73.669 31.328L83.175 36.8684L73.669 42.4088V31.328Z" fill="#FCBF49"/>
<path d="M87.443 31.328L96.949 36.8684L87.443 42.4088V31.328Z" fill="#FCBF49"/>
</g>
<rect x="4" y="4" width="396" height="494" stroke="#003049" stroke-width="8"/>
</svg>
