<svg width="603" height="458" viewBox="0 0 603 458" fill="none" xmlns="http://www.w3.org/2000/svg">
<g clip-path="url(#clip0_2_183)">
<path d="M483.055 414.306H156.991C70.5733 395.228 1.17774e-05 329.518 1.17774e-05 231.253C-0.0125473 216.389 1.59962 201.567 4.80799 187.051L267.63 144.848L470.382 112.294C484.947 121.793 498.808 132.325 511.856 143.808L317.784 217.607L226.232 252.423L329.047 226.949L542.444 174.076C555.408 188.519 567.19 203.975 577.677 220.295L513.144 268.394L586.055 233.991C586.364 234.521 586.671 235.053 586.977 235.585C632.723 315.163 575.061 414.306 483.055 414.306Z" fill="white"/>
<path d="M430.95 89.9579C381.595 100.12 320.914 112.964 258.524 126.315C168.316 145.625 74.5391 166.006 6.26608 180.905L6.3114 180.728C9.23731 169.576 15.2823 159.482 23.742 151.622C75.5102 102.994 140.518 70.6689 210.626 58.6941H210.632C230.942 55.2423 251.509 53.5111 272.112 53.519C327.151 53.4416 381.481 65.9052 430.95 89.9579Z" fill="white"/>
<path d="M61.575 0V458H511.654V0H61.575ZM470.076 323.294H104.192V39.3756H470.076V323.294Z" fill="#003049"/>
<path d="M310.39 119.398C299.294 100.708 277.342 99.8372 277.342 99.8372C277.342 99.8372 255.951 97.1103 242.229 125.575C229.439 152.106 211.787 177.723 239.387 183.934L244.373 168.466L247.46 185.086C251.39 185.367 255.332 185.434 259.269 185.287C288.827 184.335 316.976 185.565 316.07 174.992C314.865 160.936 321.066 137.381 310.39 119.398Z" fill="#2F2E41"/>
<path d="M234.642 296.871L197.222 322.776C197.222 322.776 175.394 345.572 190.986 345.572C206.577 345.572 212.814 325.885 212.814 325.885L260.628 305.161L234.642 296.871Z" fill="#FFB8B8"/>
<path d="M249.714 195.842C249.714 195.842 216.972 296.871 227.366 302.052C237.761 307.233 260.628 310.342 260.628 310.342L249.714 195.842Z" fill="#D0CDE1"/>
<path d="M249.714 195.842C249.714 195.842 216.972 296.871 227.366 302.052C237.761 307.233 260.628 310.342 260.628 310.342L249.714 195.842Z" fill="#EF6363"/>
<path d="M352.65 323.294H278.943L331.311 296.871C332.465 297.617 333.573 298.434 334.626 299.316C342.392 305.833 348.557 314.035 352.65 323.294Z" fill="#2F2E41"/>
<path d="M270.503 169.937C285.429 169.937 297.529 157.875 297.529 142.996C297.529 128.116 285.429 116.054 270.503 116.054C255.577 116.054 243.478 128.116 243.478 142.996C243.478 157.875 255.577 169.937 270.503 169.937Z" fill="#FFB8B8"/>
<path d="M269.983 165.274C269.983 165.274 276.22 184.962 269.983 192.215C263.747 199.468 304.285 181.853 304.285 181.853C304.285 181.853 289.733 161.129 293.891 151.803L269.983 165.274Z" fill="#FFB8B8"/>
<path d="M329.855 255.226L327.673 269.412C327.673 269.412 328.774 272.634 330.115 277.328C331.861 283.452 334.013 292.084 334.626 299.316C335.26 306.653 334.304 312.559 329.751 312.932C323.224 313.471 319.825 317.419 316.436 323.294H241.243C241.44 320.061 241.679 316.704 241.96 313.253C242.116 311.181 242.289 309.081 242.48 306.953C242.688 304.508 250.053 258.574 244.517 248.688C233.086 228.275 247.635 216.566 247.635 216.566C247.635 216.566 249.714 201.023 249.714 195.842C249.714 191.78 265.68 187.086 272.582 185.241C273.029 185.127 273.424 185.013 273.788 184.93C274.983 184.62 275.7 184.443 275.7 184.443L281.157 182.216C281.157 182.216 296.489 179.262 297.529 177.19C297.903 176.444 298.953 175.833 300.19 175.304C302.383 174.372 305.179 173.708 305.844 173.045C306.794 171.957 307.653 170.792 308.412 169.564C310.303 167.253 313.006 165.864 316.062 165.108C327.226 162.3 343.264 167.864 343.264 167.864L337.651 204.39L329.855 255.226Z" fill="#D62828"/>
<path d="M362.494 232.627L325.074 258.532C325.074 258.532 303.246 281.328 318.837 281.328C334.429 281.328 340.666 261.64 340.666 261.64L388.48 240.916L362.494 232.627Z" fill="#FFB8B8"/>
<path d="M298.208 117.596L276.521 106.272L262.914 108.376C258.094 109.122 253.61 111.295 250.044 114.613C246.479 117.931 243.996 122.242 242.919 126.984L240.375 138.187L255.8 137.595L260.109 127.572V137.43L267.226 137.157L271.357 121.2L273.939 138.187L299.241 137.672L298.208 117.596Z" fill="#2F2E41"/>
<path d="M335.988 169.937L343.264 167.864C343.264 167.864 417.065 197.914 414.986 223.819C412.907 249.724 416.025 249.724 403.552 250.76C391.079 251.796 354.698 239.362 355.737 237.29C356.777 235.217 364.053 224.855 364.053 224.855L335.988 203.095V169.937Z" fill="#D62828"/>
<path d="M297.529 147.14C299.825 147.14 301.686 145.285 301.686 142.995C301.686 140.706 299.825 138.851 297.529 138.851C295.232 138.851 293.371 140.706 293.371 142.995C293.371 145.285 295.232 147.14 297.529 147.14Z" fill="#FFB8B8"/>
<path d="M421.025 325.968C420.814 325.623 415.827 317.324 414.099 300.089C412.513 284.277 413.533 257.625 427.398 220.448C453.665 150.018 421.345 93.1909 421.014 92.6249L422.609 91.7027C422.693 91.8462 431.033 106.335 435.959 129.406C442.469 159.993 440.099 191.796 429.126 221.088C402.903 291.398 422.398 324.682 422.598 325.011L421.025 325.968Z" fill="#3F3D56"/>
<path d="M410.754 88.4894C417.37 88.4894 422.733 83.1429 422.733 76.5476C422.733 69.9523 417.37 64.6058 410.754 64.6058C404.138 64.6058 398.775 69.9523 398.775 76.5476C398.775 83.1429 404.138 88.4894 410.754 88.4894Z" fill="#6C63FF"/>
<path d="M448.534 132.582C455.15 132.582 460.514 127.236 460.514 120.641C460.514 114.045 455.15 108.699 448.534 108.699C441.918 108.699 436.555 114.045 436.555 120.641C436.555 127.236 441.918 132.582 448.534 132.582Z" fill="#3F3D56"/>
<path d="M422.733 161.978C429.349 161.978 434.712 156.631 434.712 150.036C434.712 143.44 429.349 138.094 422.733 138.094C416.117 138.094 410.754 143.44 410.754 150.036C410.754 156.631 416.117 161.978 422.733 161.978Z" fill="#6C63FF"/>
<path d="M454.063 186.78C460.679 186.78 466.043 181.433 466.043 174.838C466.043 168.243 460.679 162.896 454.063 162.896C447.447 162.896 442.084 168.243 442.084 174.838C442.084 181.433 447.447 186.78 454.063 186.78Z" fill="#6C63FF"/>
<path d="M413.518 225.361C420.134 225.361 425.497 220.015 425.497 213.419C425.497 206.824 420.134 201.477 413.518 201.477C406.902 201.477 401.539 206.824 401.539 213.419C401.539 220.015 406.902 225.361 413.518 225.361Z" fill="#3F3D56"/>
<path d="M428.262 326.407C428.262 326.407 416.283 297.012 452.22 274.966L428.262 326.407Z" fill="#3F3D56"/>
<path d="M413.529 325.874C413.529 325.874 408.077 294.615 365.881 294.883L413.529 325.874Z" fill="#3F3D56"/>
</g>
<defs>
<clipPath id="clip0_2_183">
<rect width="603" height="458" fill="white"/>
</clipPath>
</defs>
</svg>
