<svg width="663" height="544" viewBox="0 0 663 544" fill="none" xmlns="http://www.w3.org/2000/svg">
<g clip-path="url(#clip0_4_2885)">
<path d="M163.647 496.384L164.996 524.827L164.996 524.828C165.223 529.635 163.533 534.336 160.297 537.897C157.061 541.457 152.544 543.585 147.74 543.814L147.152 543.841L144.944 497.272L163.647 496.384Z" fill="#003049"/>
<path d="M567.775 448.317C554.237 474.754 537.065 500.321 515.339 523.462C514.856 523.984 514.369 524.493 513.877 525.012L462.401 500.627C462.716 500.103 463.061 499.516 463.432 498.873C485.545 461.015 619.025 230.08 614.807 177.776C615.298 182.09 631.12 324.75 567.775 448.317Z" fill="#E6E6E6"/>
<path d="M525.27 528.166C524.549 528.576 523.81 528.977 523.067 529.365L484.45 511.072C484.99 510.689 485.619 510.236 486.342 509.726C498.173 501.226 533.352 475.725 567.775 448.318C604.767 418.865 640.893 387.22 646.257 372.114C645.168 375.578 611.309 480.869 525.27 528.166Z" fill="#E6E6E6"/>
<path d="M64.2363 542.706C97.15 542.706 123.832 516.007 123.832 483.072C123.832 450.137 97.15 423.438 64.2363 423.438C31.3226 423.438 4.64081 450.137 4.64081 483.072C4.64081 516.007 31.3226 542.706 64.2363 542.706Z" fill="#D62828"/>
<path d="M88.1083 458.047H40.3643C38.2546 458.049 36.2321 458.889 34.7403 460.382C33.2485 461.874 32.4094 463.898 32.407 466.009V500.134C32.4094 502.245 33.2485 504.269 34.7403 505.762C36.232 507.254 38.2546 508.094 40.3643 508.096H88.1083C90.218 508.094 92.2407 507.254 93.7325 505.762C95.2242 504.269 96.0634 502.245 96.0657 500.134V466.009C96.0633 463.898 95.2242 461.874 93.7324 460.382C92.2406 458.889 90.218 458.049 88.1083 458.047ZM88.1083 462.597C88.3933 462.598 88.6771 462.635 88.9529 462.707L64.2418 482.432L39.6753 462.667C39.902 462.62 40.1328 462.597 40.3643 462.597H88.1083ZM88.1083 503.546H40.3643C39.4602 503.545 38.5934 503.186 37.954 502.546C37.3147 501.906 36.9551 501.039 36.9541 500.134V466.316L62.8118 487.12C63.2145 487.444 63.7154 487.621 64.232 487.622C64.7486 487.623 65.2502 487.447 65.6541 487.125L91.5187 466.479V500.134C91.5176 501.039 91.158 501.906 90.5187 502.546C89.8793 503.186 89.0125 503.545 88.1083 503.546Z" fill="white"/>
<path d="M294.229 396.976L307.564 397.086C308.913 397.097 310.249 396.813 311.477 396.255C312.706 395.696 313.798 394.877 314.677 393.853C315.556 392.828 316.202 391.625 316.568 390.325C316.935 389.026 317.014 387.662 316.8 386.329C316.569 384.894 316.006 383.534 315.154 382.357C314.302 381.18 313.186 380.22 311.895 379.553C310.605 378.887 309.176 378.533 307.724 378.52C306.272 378.506 304.837 378.835 303.535 379.478L290.96 385.687L247.949 395.285L229.523 376.433L218.939 393.877L243.803 413.1L294.229 396.976Z" fill="#FFB8B8"/>
<path d="M291.73 534.833L276.02 537.857C265.288 504.008 253.662 471.953 253.662 447.161C238.476 464.074 219.643 473.75 197.467 476.788L199.884 439.301L218.011 429.626L245.755 416.813C248.185 415.691 250.805 415.043 253.477 414.902C258.671 414.628 263.782 416.287 267.827 419.559C271.872 422.831 274.565 427.484 275.387 432.623L291.73 534.833Z" fill="#003049"/>
<path d="M216.501 472.253L210.239 477.015C207.547 479.063 204.366 480.37 201.012 480.808C197.659 481.245 194.25 480.797 191.122 479.509C173.188 466.057 160.446 470.026 148.898 490.33C135.046 474.687 131.629 452.094 143.991 428.719L212.573 430.231L226.471 425.999L216.501 472.253Z" fill="#003049"/>
<path d="M193.661 542.307C189.731 543.517 185.501 543.305 181.712 541.708C177.923 540.11 174.816 537.229 172.936 533.57C166.773 528.138 161.573 520.361 157.062 510.903C153.826 503.965 151.047 496.823 148.743 489.522C145.622 479.876 150.841 469.338 160.554 466.452C160.843 466.367 161.135 466.286 161.431 466.21C174.398 462.879 187.714 470.362 192.146 483.003L205.034 519.758C205.796 521.929 206.122 524.23 205.995 526.527C205.868 528.825 205.29 531.075 204.294 533.149C203.298 535.223 201.904 537.08 200.191 538.615C198.477 540.15 196.478 541.332 194.308 542.094C194.094 542.169 193.878 542.24 193.661 542.307Z" fill="#003049"/>
<path opacity="0.2" d="M154.867 506.718C154.867 506.718 169.974 523.647 172.995 533.322L154.867 506.718Z" fill="black"/>
<path d="M96.2795 426.819L91.2237 439.166C90.7122 440.416 90.4791 441.762 90.5408 443.111C90.6025 444.459 90.9575 445.778 91.581 446.976C92.2045 448.173 93.0815 449.22 94.1509 450.043C95.2202 450.867 96.4562 451.447 97.7726 451.743C99.1894 452.062 100.661 452.044 102.07 451.689C103.478 451.335 104.784 450.655 105.881 449.704C106.979 448.753 107.839 447.557 108.39 446.213C108.942 444.869 109.171 443.414 109.058 441.965L107.968 427.976L115.042 384.452L139.379 374.337L127.126 358.023L100.053 373.982L96.2795 426.819Z" fill="#FFB8B8"/>
<path d="M217.105 428.719C199.744 457.9 165.133 469.2 135.489 446.35C140.703 429.205 157.54 381.821 146.663 380.007C123.57 389.697 123.536 366.945 119.217 355.558L171.786 336.209L200.186 344.07L206.008 346.137C209.796 347.482 213.083 349.956 215.424 353.226C217.766 356.496 219.05 360.405 219.106 364.427C207.176 381.673 198.344 400.07 217.105 428.719Z" fill="#D62828"/>
<path d="M223.752 405.138L202.905 387.906L209.854 347.698L238.254 377.93L223.752 405.138Z" fill="#D62828"/>
<path d="M569.662 128.917H566.682V47.2598C566.682 34.7257 561.706 22.705 552.849 13.8421C543.992 4.97915 531.979 0 519.453 0H346.561C334.035 0 322.022 4.97915 313.165 13.8421C304.307 22.705 299.332 34.7257 299.332 47.2598V495.24C299.332 507.774 304.307 519.794 313.165 528.657C322.022 537.52 334.035 542.499 346.561 542.499H519.452C531.978 542.499 543.991 537.52 552.848 528.657C561.705 519.794 566.681 507.774 566.681 495.24V187.042H569.661L569.662 128.917Z" fill="#3F3D56"/>
<path d="M521.358 12.2942H498.79C499.829 14.8405 500.225 17.6032 499.945 20.339C499.665 23.0748 498.716 25.6997 497.183 27.9823C495.651 30.2649 493.58 32.1352 491.155 33.4283C488.729 34.7215 486.023 35.3979 483.274 35.3978H384.227C381.479 35.3976 378.774 34.7211 376.349 33.428C373.923 32.1349 371.853 30.2649 370.32 27.9826C368.788 25.7003 367.839 23.0759 367.559 20.3404C367.278 17.605 367.675 14.8426 368.713 12.2965H347.631C338.276 12.2965 329.305 16.0149 322.69 22.6339C316.075 29.2529 312.359 38.2301 312.359 47.5907V494.911C312.359 504.271 316.075 513.249 322.69 519.867C329.305 526.486 338.276 530.205 347.631 530.205H521.352C530.706 530.205 539.678 526.486 546.292 519.867C552.907 513.249 556.623 504.271 556.623 494.911V494.911V47.5885C556.623 38.2278 552.907 29.2506 546.292 22.6316C539.678 16.0127 530.706 12.2942 521.352 12.2942H521.358L521.358 12.2942Z" fill="white"/>
<path d="M434.793 505.207C445.49 505.207 454.161 496.53 454.161 485.826C454.161 475.122 445.49 466.445 434.793 466.445C424.096 466.445 415.424 475.122 415.424 485.826C415.424 496.53 424.096 505.207 434.793 505.207Z" fill="#E6E6E6"/>
<path d="M356.219 306.591C354.388 306.591 352.898 308.293 352.898 310.384C352.898 312.475 354.388 314.176 356.219 314.176H512.763C514.594 314.176 516.084 312.475 516.084 310.384C516.084 308.293 514.594 306.591 512.763 306.591H356.219Z" fill="#E6E6E6"/>
<path d="M356.219 396.042C354.388 396.042 352.898 397.743 352.898 399.834C352.898 401.925 354.388 403.627 356.219 403.627H512.763C514.594 403.627 516.084 401.925 516.084 399.834C516.084 397.743 514.594 396.042 512.763 396.042H356.219Z" fill="#E6E6E6"/>
<path d="M356.219 329.347C354.388 329.347 352.898 331.048 352.898 333.139C352.898 335.23 354.388 336.932 356.219 336.932H423.58C425.411 336.932 426.901 335.23 426.901 333.139C426.901 331.048 425.411 329.347 423.58 329.347H356.219Z" fill="#E6E6E6"/>
<path d="M356.219 351.037C354.388 351.037 352.898 352.739 352.898 354.83C352.898 356.921 354.388 358.623 356.219 358.623H512.763C514.594 358.623 516.084 356.921 516.084 354.83C516.084 352.739 514.594 351.037 512.763 351.037H356.219Z" fill="#E6E6E6"/>
<path d="M356.219 373.793C354.388 373.793 352.898 375.495 352.898 377.586C352.898 379.677 354.388 381.378 356.219 381.378H423.58C425.411 381.378 426.901 379.677 426.901 377.586C426.901 375.495 425.411 373.793 423.58 373.793H356.219Z" fill="#E6E6E6"/>
<path d="M385.772 133.898H483.22C484.297 133.899 485.329 134.328 486.09 135.09C486.851 135.851 487.279 136.884 487.281 137.961V239.515C487.279 240.592 486.851 241.625 486.09 242.387C485.329 243.148 484.297 243.577 483.22 243.578H385.772C384.695 243.577 383.663 243.148 382.902 242.387C382.141 241.625 381.712 240.592 381.711 239.515V137.961C381.712 136.884 382.141 135.851 382.902 135.09C383.663 134.328 384.695 133.899 385.772 133.898Z" fill="#D62828"/>
<path d="M462.456 222.636C462.818 222.637 463.177 222.566 463.512 222.428C463.847 222.29 464.152 222.087 464.408 221.831C464.665 221.574 464.868 221.27 465.007 220.935C465.146 220.6 465.218 220.241 465.218 219.879C465.218 219.516 465.147 219.157 465.008 218.822C464.87 218.487 464.667 218.183 464.41 217.926C464.154 217.67 463.85 217.467 463.515 217.328C463.18 217.19 462.821 217.119 462.459 217.119H406.536C406.174 217.118 405.815 217.189 405.48 217.327C405.145 217.466 404.84 217.669 404.584 217.925C404.327 218.181 404.123 218.485 403.984 218.82C403.845 219.155 403.774 219.514 403.774 219.876C403.773 220.239 403.845 220.598 403.983 220.933C404.122 221.268 404.325 221.572 404.582 221.829C404.838 222.085 405.142 222.288 405.477 222.427C405.812 222.565 406.171 222.636 406.533 222.636H462.456Z" fill="white"/>
<path d="M462.456 206.384C463.187 206.384 463.888 206.093 464.405 205.576C464.922 205.059 465.213 204.357 465.213 203.626C465.213 202.894 464.922 202.192 464.405 201.675C463.888 201.158 463.187 200.867 462.456 200.867H406.536C405.805 200.867 405.104 201.157 404.586 201.674C404.069 202.191 403.778 202.893 403.778 203.624C403.778 204.356 404.068 205.058 404.584 205.575C405.101 206.093 405.802 206.384 406.533 206.384H462.456Z" fill="white"/>
<path d="M434.496 154.84C437.928 154.84 441.282 155.859 444.136 157.766C446.989 159.674 449.213 162.386 450.527 165.559C451.84 168.731 452.183 172.222 451.514 175.59C450.844 178.958 449.192 182.052 446.765 184.48C444.339 186.909 441.247 188.562 437.881 189.232C434.515 189.902 431.026 189.558 427.856 188.244C424.685 186.93 421.975 184.705 420.068 181.849C418.162 178.994 417.144 175.637 417.144 172.203C417.149 167.6 418.979 163.187 422.232 159.932C425.485 156.676 429.895 154.846 434.496 154.84Z" fill="white"/>
<path d="M213.102 330.945H161.589C160.529 330.944 159.513 330.523 158.764 329.773C158.015 329.023 157.593 328.007 157.592 326.946V304.728C157.592 296.832 160.727 289.259 166.307 283.676C171.886 278.093 179.454 274.956 187.345 274.956C195.236 274.956 202.804 278.093 208.384 283.676C213.964 289.259 217.098 296.832 217.098 304.728V326.946C217.097 328.007 216.676 329.023 215.926 329.773C215.177 330.523 214.161 330.944 213.102 330.945Z" fill="#003049"/>
<path d="M212.173 318.249C217.952 307.671 214.067 294.409 203.496 288.626C192.925 282.844 179.671 286.731 173.892 297.309C168.113 307.887 171.998 321.15 182.569 326.932C193.141 332.715 206.395 328.827 212.173 318.249Z" fill="#FFB6B6"/>
<path d="M224.137 306.95H192.638L192.315 302.425L190.7 306.95H185.85L185.21 297.981L182.009 306.95H172.624V306.506C172.631 300.262 175.113 294.276 179.526 289.86C183.938 285.445 189.92 282.962 196.16 282.955H200.601C206.841 282.962 212.824 285.445 217.236 289.86C221.648 294.275 224.13 300.262 224.137 306.506V306.95Z" fill="#003049"/>
<path d="M192.381 335.093C192.143 335.093 191.907 335.072 191.673 335.03L168.608 330.958V292.814H193.998L193.37 293.548C184.624 303.754 191.213 320.304 195.919 329.261C196.266 329.917 196.42 330.657 196.365 331.397C196.31 332.138 196.047 332.847 195.606 333.444C195.237 333.954 194.752 334.37 194.192 334.657C193.631 334.943 193.01 335.093 192.381 335.093Z" fill="#003049"/>
<path d="M269.173 523.417L297.629 523.416H297.63C302.44 523.417 307.052 525.328 310.453 528.731C313.854 532.134 315.765 536.75 315.765 541.562V542.152L269.173 542.154L269.173 523.417Z" fill="#003049"/>
</g>
<defs>
<clipPath id="clip0_4_2885">
<rect width="663" height="544" fill="white"/>
</clipPath>
</defs>
</svg>
